<?xml version="1.0" encoding="iso-8859-1"?>
<!-- Generator: Adobe Illustrator 19.0.0, SVG Export Plug-In . SVG Version: 6.00 Build 0)  -->
<svg version="1.1" id="Capa_1" xmlns="http://www.w3.org/2000/svg" xmlns:xlink="http://www.w3.org/1999/xlink" x="0px" y="0px"
	 viewBox="0 0 511.999 511.999" style="enable-background:new 0 0 511.999 511.999;" xml:space="preserve">
<path style="fill:#46495E;" d="M424.195,270.586c-11.708-35.193,13.801-78.829-3.427-146.813C402.702,52.482,344.398,0,255.999,0
	S109.296,52.482,91.23,123.773c-17.228,67.984,8.28,111.62-3.427,146.813c-6.955,20.907-39.668,10.072-27.031,33.857
	c37.446,70.484,126.473,86.446,195.227,86.446s157.781-15.962,195.228-86.445C463.863,280.659,431.151,291.493,424.195,270.586z"/>
<path style="fill:#303449;" d="M424.195,270.586c-11.708-35.193,13.801-78.829-3.427-146.813C402.702,52.482,344.398,0,255.999,0
	c-5.433,0-10.75,0.2-15.954,0.589c79.763,6.122,132.367,59.834,149.362,131.286c17.228,72.434-8.28,118.927,3.427,156.423
	c6.955,22.275,39.668,10.732,27.031,36.073c-7.301,14.641-16.569,27.065-27.259,37.595c24.127-13.089,44.859-31.621,58.62-57.523
	C463.863,280.659,431.151,291.493,424.195,270.586z"/>
<path style="fill:#E87769;" d="M345.354,357.397l-65.562-23.535c-15.552-5.583-32.68-5.585-48.232,0l-65.562,23.535
	c-27.249,9.781-45.556,35.804-45.556,64.755v76.066c0,7.599,6.182,13.781,13.78,13.781h242.907c7.599,0,13.78-6.182,13.78-13.781
	v-76.066C390.909,393.201,372.602,367.178,345.354,357.397z"/>
<path style="fill:#C95047;" d="M345.354,357.397l-65.562-23.535c-11.958-4.292-24.845-5.272-37.234-2.963
	c3.724,0.694,7.406,1.673,11.001,2.963l65.562,23.535c27.248,9.781,45.556,35.804,45.556,64.755v76.066
	c0,7.599-6.182,13.781-13.78,13.781h26.233c7.599,0,13.78-6.182,13.78-13.781v-76.066
	C390.909,393.201,372.602,367.178,345.354,357.397z"/>
<path style="fill:#D8E6F0;" d="M334.843,355.366l-14.284-12.972c-36.617-33.254-92.503-33.254-129.119,0l-14.284,12.972
	c-5.08,4.614-4.345,12.804,1.476,16.439l48.633,30.366c1.949,1.217,4.518,0.601,5.703-1.368l18.409-30.598h9.245l18.409,30.598
	c1.185,1.969,3.753,2.586,5.703,1.368l48.633-30.366C339.187,368.17,339.923,359.979,334.843,355.366z"/>
<path style="fill:#F0B27D;" d="M289.169,345.315v-54.728h-66.34v54.495l-15.285,5.487c10.061,16.186,27.995,26.967,48.455,26.967
	c20.379,0,38.251-10.698,48.334-26.778L289.169,345.315z"/>
<path style="fill:#FFC599;" d="M132.817,248.772h25.295v-48.007h-25.295c-13.257,0-24.004,10.747-24.004,24.004l0,0
	C108.813,238.025,119.56,248.772,132.817,248.772z"/>
<path style="fill:#B4CBDB;" d="M364.676,323.408c-1.919,0-3.839-0.732-5.303-2.197c-2.929-2.929-2.929-7.678,0-10.606l10.686-10.686
	c1.185-1.185,1.837-2.76,1.837-4.437v-43.866c0-4.143,3.358-7.5,7.5-7.5s7.5,3.357,7.5,7.5v43.866
	c0,5.683-2.213,11.025-6.231,15.044l-10.686,10.686C368.515,322.676,366.595,323.408,364.676,323.408z"/>
<g>
	<path style="fill:#FFDC48;" d="M359.04,337.963l5.636-5.636c4.534-4.534,4.534-11.885,0-16.419s-11.885-4.534-16.419,0
		l-5.636,5.636c-4.534,4.534-4.534,11.885,0,16.419C347.155,342.497,354.506,342.497,359.04,337.963z"/>
	<path style="fill:#FFDC48;" d="M369.979,310.605c-3.609-3.61-8.408-5.598-13.513-5.598c-5.104,0-9.903,1.987-13.513,5.597
		l-5.637,5.637c-3.609,3.609-5.597,8.408-5.597,13.513s1.988,9.903,5.597,13.513c3.726,3.726,8.619,5.588,13.513,5.588
		s9.787-1.862,13.513-5.588l5.636-5.636C377.43,330.18,377.43,318.056,369.979,310.605z"/>
</g>
<path style="fill:#80B9F9;" d="M378.133,261.224H341.86v-69.238h36.273c14.311,0,25.912,11.601,25.912,25.912v17.414
	C404.045,249.622,392.444,261.224,378.133,261.224z"/>
<path style="fill:#F9C295;" d="M353.886,168.58v86.289c0,37.561-57.344,79.955-97.887,79.955s-97.887-42.394-97.887-79.955v-79.801
	c0-33.016,24.534-60.305,56.378-64.624C235.537,138.36,275.659,164.867,353.886,168.58z"/>
<path style="fill:#DE9962;" d="M328.964,254.87c0,33.844-46.554,71.601-85.426,78.745c3.161,0.581,6.271,0.96,9.302,1.119
	c0.089,0.005,0.178,0.009,0.267,0.013c0.972,0.047,1.937,0.074,2.891,0.074c25.01,0,56.409-16.133,76.8-37.311
	c12.665-13.153,21.087-28.251,21.087-42.641V168.58c-8.788-0.417-17.069-1.136-24.922-2.098L328.964,254.87L328.964,254.87z"/>
<g>
	<path style="fill:#3A3B4A;" d="M255.914,276.78c-9.608,0-19.216-3.628-26.703-10.884c-2.975-2.883-3.049-7.631-0.167-10.605
		s7.631-3.049,10.605-0.166c9.121,8.838,23.408,8.838,32.529,0c2.974-2.884,7.723-2.808,10.605,0.166
		c2.883,2.975,2.808,7.723-0.167,10.605C275.13,273.152,265.522,276.78,255.914,276.78z"/>
	<path style="fill:#3A3B4A;" d="M322.601,208.739c-2.098,0-4.183-0.875-5.667-2.583c-1.411-1.624-3.198-2.52-5.033-2.52
		s-3.623,0.896-5.033,2.52c-2.715,3.128-7.452,3.462-10.581,0.746c-3.127-2.716-3.461-7.453-0.746-10.58
		c4.303-4.956,10.113-7.686,16.359-7.686s12.056,2.729,16.359,7.686c2.716,3.127,2.382,7.864-0.746,10.58
		C326.096,208.135,324.344,208.739,322.601,208.739z"/>
	<path style="fill:#3A3B4A;" d="M210.149,208.739c-2.098,0-4.183-0.874-5.666-2.582c-1.411-1.625-3.199-2.521-5.034-2.521
		c-1.835,0-3.623,0.896-5.034,2.521c-2.715,3.126-7.452,3.461-10.58,0.745c-3.127-2.717-3.461-7.453-0.745-10.581
		c4.303-4.955,10.113-7.685,16.359-7.685c6.246,0,12.056,2.729,16.359,7.685c2.716,3.128,2.382,7.864-0.745,10.581
		C213.644,208.135,211.892,208.739,210.149,208.739z"/>
</g>
<path style="fill:#FFDC48;" d="M149.646,100.738l-4.62,4.62c-3.234,3.234-3.234,8.478,0,11.712l21.151,21.151
	c3.234,3.234,8.478,3.234,11.712,0l4.62-4.62c3.234-3.234,3.234-8.478,0-11.712l-21.151-21.151
	C158.123,97.504,152.88,97.504,149.646,100.738z"/>
<g>
</g>
<g>
</g>
<g>
</g>
<g>
</g>
<g>
</g>
<g>
</g>
<g>
</g>
<g>
</g>
<g>
</g>
<g>
</g>
<g>
</g>
<g>
</g>
<g>
</g>
<g>
</g>
<g>
</g>
</svg>
