<?xml version="1.0" encoding="utf-8"?>
<!-- Generator: Adobe Illustrator 16.0.0, SVG Export Plug-In . SVG Version: 6.00 Build 0)  -->
<!DOCTYPE svg PUBLIC "-//W3C//DTD SVG 1.1//EN" "http://www.w3.org/Graphics/SVG/1.1/DTD/svg11.dtd">
<svg fill='#4c493d' version="1.1" id="Layer_1" xmlns="http://www.w3.org/2000/svg" xmlns:xlink="http://www.w3.org/1999/xlink" x="0px" y="0px"
	 width="300px" height="65px" viewBox="0 0 403.706 81.229" enable-background="new 0 0 403.706 81.229"
	 xml:space="preserve">
<g>
	<defs>
		<rect id="SVGID_1_" x="-110.435" y="-325.24" width="612" height="792"/>
	</defs>
	<clipPath id="SVGID_2_">
		<use xlink:href="#SVGID_1_"  overflow="visible"/>
	</clipPath>
	<path clip-path="url(#SVGID_2_)" d="M48.863,62.653L19.784,52.062L0,44.863v0.033v2.888l19.784,7.206v16.023
		c0,3.329,4.554,6.285,11.608,8.154c4.928,1.308,11.082,2.083,17.762,2.083c16.218,0,29.37-4.582,29.37-10.237V56.026
		c0-0.416,0.004-0.836,0.005-1.254l0.009-0.003l19.188-6.985v-2.888v-0.033l-19.174,6.978L48.863,62.653z"/>
	<path clip-path="url(#SVGID_2_)" d="M82.933,36.326l-0.014-0.007c-0.728-0.252-4.392-1.597-7.056-2.574
		c6.389-10.528,5.323-30.505,5.274-31.36L80.999,0l-2.343,0.469l0.408,2.036c0,0,1.183,20.524-5.185,30.512
		c-0.221,0.353-0.457,0.699-0.706,1.025c-0.381,0.512-0.796,0.99-1.239,1.446c-0.414,0.426-0.854,0.821-1.309,1.197
		c-0.152,0.125-0.315,0.237-0.471,0.357c-0.313,0.24-0.627,0.478-0.954,0.697c-0.193,0.129-0.392,0.248-0.589,0.37
		c-0.307,0.19-0.615,0.377-0.931,0.551c-0.214,0.118-0.43,0.229-0.648,0.339c-0.313,0.159-0.629,0.314-0.949,0.459
		c-0.223,0.101-0.446,0.2-0.672,0.294c-0.326,0.137-0.655,0.266-0.985,0.39c-0.222,0.083-0.444,0.167-0.668,0.245
		c-0.347,0.12-0.696,0.23-1.045,0.337c-0.207,0.064-0.414,0.131-0.621,0.19c-0.393,0.112-0.784,0.212-1.175,0.309
		c-0.162,0.04-0.326,0.086-0.488,0.124c-0.55,0.128-1.097,0.244-1.636,0.346c-0.086,0.016-0.169,0.027-0.255,0.043
		c-0.454,0.082-0.903,0.159-1.343,0.224c-0.189,0.029-0.37,0.05-0.556,0.076c-0.33,0.045-0.658,0.089-0.976,0.125
		c-0.202,0.024-0.396,0.043-0.592,0.062c-0.289,0.03-0.577,0.058-0.854,0.082c-0.194,0.016-0.383,0.03-0.57,0.044
		c-0.262,0.019-0.519,0.036-0.767,0.05c-0.176,0.01-0.35,0.019-0.518,0.027c-0.24,0.011-0.469,0.02-0.692,0.027
		c-0.15,0.004-0.302,0.01-0.443,0.013c-0.223,0.005-0.429,0.008-0.629,0.01c-0.112,0.001-0.234,0.003-0.338,0.003
		c-0.201,0-0.376-0.002-0.547-0.003c-0.079-0.001-0.174-0.001-0.246-0.003c-0.225-0.004-0.423-0.009-0.577-0.014
		c-0.103-0.007-0.193-0.007-0.262-0.014c-0.06,0-0.104-0.002-0.135-0.003c-0.03-0.002-0.046-0.004-0.046-0.004
		s-0.039-0.105-0.105-0.307c-0.022-0.067-0.047-0.145-0.074-0.233c-0.219-0.672-0.603-1.937-0.988-3.591
		c-0.257-1.102-0.513-2.377-0.721-3.764c-0.312-2.081-0.513-4.413-0.437-6.793c0.017-0.485,0.045-0.971,0.085-1.458
		c0.041-0.487,0.095-0.976,0.164-1.464c0.415-3.024,1.391-5.987,3.26-8.479c1.038-1.384,2.402-2.658,3.966-3.828
		c9.2-6.86,24.878-9.898,25.467-10.016l-0.438-2.031c-2.809,0.558-17.277,3.677-26.27,10.382c-1.816,1.358-3.291,2.786-4.386,4.247
		c-1.651,2.201-2.789,4.865-3.399,7.932C39.183,8.382,31.329,3.162,31.329,3.162l-2.672,2.839
		c7.421,5.925,11.505,13.304,14.156,20.122L0,41.704v0.27l19.783,7.199l29.08,10.591l29.688-10.812l19.174-6.978v-0.27
		L82.933,36.326z"/>
	<path clip-path="url(#SVGID_2_)" d="M133.898,27.833c0.262,0.653,0.435,1.348,0.435,2.089c0,0.827-0.131,1.653-0.435,2.393h-12.402
		v8.702h10.227c0.261,0.696,0.434,1.436,0.434,2.176c0,0.783-0.129,1.566-0.434,2.306h-10.227v9.181h12.837
		c0.261,0.697,0.435,1.437,0.435,2.176c0,0.783-0.13,1.566-0.435,2.306h-18.406V27.833H133.898z"/>
	<path clip-path="url(#SVGID_2_)" d="M156.896,27.833c0,0,0.435,0.827,0.435,2.349c0,1.349-0.435,2.437-0.435,2.437h-11.834v26.152
		c0,0-0.958,0.391-2.829,0.391c-1.828,0-2.742-0.391-2.742-0.391V27.833H156.896z"/>
	<path clip-path="url(#SVGID_2_)" d="M168.444,27.397c8.833,0,13.62,5.613,13.62,16.1c0,10.486-4.787,16.1-13.62,16.1
		c-5.264,0-8.398-1.523-8.398-1.523c0-1.611,0.609-3.307,1.654-4.177c0,0,2.784,0.914,6.135,0.914c4.438,0,7.833-1.915,8.311-9.312
		h-10.617c0,0-0.435-0.914-0.435-2.306c0-1.393,0.435-2.176,0.435-2.176h10.573c-0.609-6.918-3.916-8.92-8.267-8.92
		c-3.003,0-5.701,0.913-5.701,0.913c-1.174-1.044-1.652-2.697-1.652-4.089C160.482,28.921,163.396,27.397,168.444,27.397"/>
	<path clip-path="url(#SVGID_2_)" d="M187.371,48.545c0,0-0.306-0.783-0.306-2.002c0-1.218,0.306-2,0.306-2h9.573
		c0,0,0.305,0.782,0.305,2c0,1.219-0.305,2.002-0.305,2.002H187.371z"/>
	<path clip-path="url(#SVGID_2_)" d="M208.779,58.771c0,0-0.914,0.392-2.742,0.392c-2.045,0-2.829-0.392-2.829-0.392V27.833h11.662
		c5.874,0,9.704,3.959,9.704,9.79c0,5.83-3.83,9.79-9.704,9.79h-6.091V58.771z M214.086,42.802c3.045,0,4.656-1.914,4.656-5.178
		c0-3.264-1.611-5.179-4.656-5.179h-5.308v10.357H214.086z"/>
	<path clip-path="url(#SVGID_2_)" d="M231.714,49.415c0.391,4.439,2.349,5.57,5.395,5.57c2.915,0,5.09-1.045,5.09-1.045
		c0.915,0.872,1.438,2.393,1.524,3.873c0,0-2.568,1.784-7.398,1.784c-7.091,0-10.225-4.134-10.225-12.01
		c0-8.224,3.916-11.747,9.921-11.747c5.396,0,8.92,2.784,8.92,9.006c0,2.785-0.478,4.569-0.478,4.569H231.714z M236.021,40.104
		c-2.219,0-3.873,1.479-4.264,5.525h7.658c0.044-0.478,0.086-0.957,0.086-1.436C239.501,41.931,238.763,40.104,236.021,40.104"/>
	<path clip-path="url(#SVGID_2_)" d="M254.893,58.814c0,0-1.131,0.348-2.784,0.348s-2.698-0.348-2.698-0.348v-22.54h18.188v22.54
		c0,0-1.087,0.348-2.785,0.348c-1.522,0-2.697-0.348-2.697-0.348V40.8h-7.224V58.814z"/>
	<path clip-path="url(#SVGID_2_)" d="M277.901,49.415c0.392,4.439,2.35,5.57,5.396,5.57c2.915,0,5.091-1.045,5.091-1.045
		c0.914,0.872,1.437,2.393,1.521,3.873c0,0-2.566,1.784-7.396,1.784c-7.092,0-10.226-4.134-10.226-12.01
		c0-8.224,3.916-11.747,9.922-11.747c5.396,0,8.92,2.784,8.92,9.006c0,2.785-0.479,4.569-0.479,4.569H277.901z M282.208,40.104
		c-2.22,0-3.873,1.479-4.265,5.525h7.657c0.045-0.478,0.089-0.957,0.089-1.436C285.69,41.931,284.949,40.104,282.208,40.104"/>
	<path clip-path="url(#SVGID_2_)" d="M311.979,36.274c0,0,0.435,0.914,0.435,2.306c0,1.35-0.435,2.263-0.435,2.263h-6.222v17.971
		c0,0-0.958,0.348-2.74,0.348c-1.916,0-2.741-0.348-2.741-0.348V40.843h-6.223c0,0-0.479-0.913-0.479-2.263
		c0-1.392,0.479-2.306,0.479-2.306H311.979z"/>
	<path clip-path="url(#SVGID_2_)" d="M333.048,36.274c1.609,0,2.74,0.348,2.74,0.348v22.192c0,0-1.044,0.348-2.653,0.348
		c-1.697,0-2.829-0.348-2.829-0.348v-5.527c0-5.7,0.132-9.396,0.262-9.529h-0.13c0.305,0.088-2.219,4.483-4.223,7.876l-4.307,7.18
		c0,0-1.045,0.348-2.785,0.348c-1.654,0-2.699-0.348-2.699-0.348V36.623c0,0,1.045-0.348,2.656-0.348
		c1.783,0,2.828,0.348,2.828,0.348v5.571c0,4.307-0.13,9.484-0.262,9.529h0.132c0,0,0.914-2.307,2.088-4.309l6.439-10.791
		C330.306,36.623,331.35,36.274,333.048,36.274"/>
	<path clip-path="url(#SVGID_2_)" d="M357.718,36.274c0,0,0.435,0.914,0.435,2.306c0,1.35-0.435,2.263-0.435,2.263h-6.223v17.971
		c0,0-0.958,0.348-2.741,0.348c-1.915,0-2.739-0.348-2.739-0.348V40.843h-6.224c0,0-0.479-0.913-0.479-2.263
		c0-1.392,0.479-2.306,0.479-2.306H357.718z"/>
	<path clip-path="url(#SVGID_2_)" d="M370.467,35.84c6.178,0,10.008,3.263,10.008,11.878c0,8.616-3.873,11.879-10.008,11.879
		c-6.138,0-10.01-3.263-10.01-11.879C360.458,39.103,364.33,35.84,370.467,35.84 M370.467,40.017c-2.654,0-4.396,1.523-4.396,7.701
		c0,6.179,1.742,7.702,4.396,7.702c2.652,0,4.35-1.523,4.35-7.702C374.817,41.54,373.12,40.017,370.467,40.017"/>
	<path clip-path="url(#SVGID_2_)" d="M395.672,35.84c4.873,0,8.051,3.002,8.051,11.878s-3.178,11.879-8.051,11.879
		c-2.783,0-4.655-0.783-5.873-2.262v9.004c0,0-0.956,0.349-2.785,0.349c-1.827,0-2.698-0.349-2.698-0.349V36.623
		c0,0,0.871-0.349,2.698-0.349c1.829,0,2.785,0.349,2.785,0.349v1.479C391.017,36.623,392.889,35.84,395.672,35.84 M393.713,40.278
		c-2.435,0-3.914,1.957-3.914,4.7v5.482c0,2.742,1.479,4.7,3.914,4.7c2.742,0,4.353-1.306,4.353-7.442
		C398.066,41.583,396.456,40.278,393.713,40.278"/>
	<polygon clip-path="url(#SVGID_2_)" points="119.559,76.583 119.559,71.907 117.635,71.907 117.635,76.583 116.126,76.583
		116.126,70.583 121.068,70.583 121.068,76.583 	"/>
	<path clip-path="url(#SVGID_2_)" d="M126.885,75.916c-0.46,0.483-1.106,0.736-1.866,0.736c-0.76,0-1.393-0.253-1.854-0.736
		c-0.508-0.53-0.68-1.141-0.68-2.34c0-1.186,0.184-1.796,0.68-2.325c0.461-0.484,1.094-0.737,1.854-0.737
		c0.76,0,1.406,0.253,1.866,0.737c0.496,0.518,0.68,1.14,0.68,2.303C127.565,74.775,127.392,75.386,126.885,75.916 M125.019,71.86
		c-1.025,0-1.036,1.036-1.036,1.81c0,1.15,0.311,1.635,1.036,1.635c1.002,0,1.048-0.944,1.048-1.729
		C126.067,72.806,126.01,71.86,125.019,71.86"/>
	<path clip-path="url(#SVGID_2_)" d="M133.14,78.057v-1.474h-3.491v1.474h-1.416V75.26h0.645c0.391-1.071,0.61-1.971,0.61-4.112
		v-0.564h4.308v4.676h0.761v2.797H133.14z M132.299,71.907h-1.336c0,0.185,0,0.691-0.012,0.842
		c-0.046,1.116-0.264,1.807-0.518,2.511h1.866V71.907z"/>
	<polygon clip-path="url(#SVGID_2_)" points="137.194,71.907 137.194,76.583 135.697,76.583 135.697,70.583 139.671,70.583
		139.671,71.907 	"/>
	<path clip-path="url(#SVGID_2_)" d="M144.601,75.916c-0.461,0.483-1.106,0.736-1.866,0.736c-0.76,0-1.394-0.253-1.854-0.736
		c-0.507-0.53-0.68-1.141-0.68-2.34c0-1.186,0.184-1.796,0.68-2.325c0.46-0.484,1.094-0.737,1.854-0.737
		c0.76,0,1.405,0.253,1.866,0.737c0.496,0.518,0.68,1.14,0.68,2.303C145.281,74.775,145.108,75.386,144.601,75.916 M142.735,71.86
		c-1.025,0-1.037,1.036-1.037,1.81c0,1.15,0.312,1.635,1.037,1.635c1.003,0,1.048-0.944,1.048-1.729
		C143.783,72.806,143.725,71.86,142.735,71.86"/>
	<polygon clip-path="url(#SVGID_2_)" points="149.128,71.907 149.128,76.583 147.619,76.583 147.619,71.907 145.856,71.907
		145.856,70.583 150.856,70.583 150.856,71.907 	"/>
	<path clip-path="url(#SVGID_2_)" d="M155.832,75.916c-0.461,0.483-1.105,0.736-1.866,0.736c-0.76,0-1.393-0.253-1.854-0.736
		c-0.507-0.53-0.68-1.141-0.68-2.34c0-1.186,0.185-1.796,0.68-2.325c0.461-0.484,1.094-0.737,1.854-0.737
		c0.761,0,1.405,0.253,1.866,0.737c0.495,0.518,0.68,1.14,0.68,2.303C156.512,74.775,156.339,75.386,155.832,75.916 M153.966,71.86
		c-1.025,0-1.036,1.036-1.036,1.81c0,1.15,0.311,1.635,1.036,1.635c1.003,0,1.048-0.944,1.048-1.729
		C155.014,72.806,154.957,71.86,153.966,71.86"/>
	<path clip-path="url(#SVGID_2_)" d="M160.993,76.583h-3.064v-6h2.96c1.129,0,1.854,0.644,1.854,1.646
		c0,0.565-0.241,0.968-0.759,1.269c0.576,0.299,0.853,0.713,0.853,1.358C162.837,75.915,162.122,76.583,160.993,76.583
		 M159.416,71.689v1.276h1.116c0.473,0,0.726-0.229,0.726-0.644c0-0.403-0.253-0.633-0.726-0.633H159.416z M160.602,74.084h-1.186
		v1.394h1.186c0.473,0,0.748-0.276,0.748-0.701C161.35,74.337,161.075,74.084,160.602,74.084"/>
	<polygon clip-path="url(#SVGID_2_)" points="167.904,76.583 166.396,74.143 165.773,74.856 165.773,76.583 164.275,76.583
		164.275,70.583 165.773,70.583 165.773,73.104 167.801,70.583 169.62,70.583 167.42,73.058 169.724,76.583 	"/>
	<path clip-path="url(#SVGID_2_)" d="M173.779,76.583v-0.517c-0.264,0.253-0.391,0.345-0.622,0.436
		c-0.231,0.093-0.506,0.139-0.852,0.139c-1.279,0-2.028-0.691-2.028-1.865c0-1.083,0.784-1.751,2.051-1.751h1.416v-0.299
		c0-0.668-0.334-0.944-1.139-0.944c-0.53,0-0.772,0.103-1.129,0.495l-0.957-0.934c0.346-0.346,0.507-0.473,0.807-0.61
		c0.345-0.149,0.759-0.219,1.325-0.219c1.727,0,2.591,0.714,2.591,2.119v3.951H173.779z M172.558,74.05
		c-0.53,0-0.84,0.241-0.84,0.68c0,0.46,0.31,0.69,0.943,0.69c0.772,0,1.083-0.299,1.083-1.049V74.05H172.558z"/>
	<polygon clip-path="url(#SVGID_2_)" points="179.515,76.583 179.515,70.583 181.024,70.583 181.024,75.259 182.671,75.259
		182.671,70.583 184.169,70.583 184.169,75.259 185.816,75.259 185.816,70.583 187.313,70.583 187.313,76.583 	"/>
	<polygon clip-path="url(#SVGID_2_)" points="192.625,76.583 191.115,74.143 190.492,74.856 190.492,76.583 188.995,76.583
		188.995,70.583 190.492,70.583 190.492,73.104 192.521,70.583 194.34,70.583 192.14,73.058 194.444,76.583 	"/>
	<path clip-path="url(#SVGID_2_)" d="M199.363,75.916c-0.461,0.483-1.106,0.736-1.866,0.736s-1.394-0.253-1.854-0.736
		c-0.506-0.53-0.679-1.141-0.679-2.34c0-1.186,0.184-1.796,0.679-2.325c0.461-0.484,1.095-0.737,1.854-0.737
		s1.405,0.253,1.866,0.737c0.496,0.518,0.68,1.14,0.68,2.303C200.042,74.775,199.87,75.386,199.363,75.916 M197.497,71.86
		c-1.024,0-1.036,1.036-1.036,1.81c0,1.15,0.312,1.635,1.036,1.635c1.003,0,1.048-0.944,1.048-1.729
		C198.544,72.806,198.488,71.86,197.497,71.86"/>
	<path clip-path="url(#SVGID_2_)" d="M204.8,76.583v-4.676h-1.406l-0.069,2.338c-0.045,1.59-0.748,2.338-1.889,2.338h-0.795v-1.324
		h0.219c0.461,0,0.956-0.265,0.979-1.291l0.093-3.385h4.365v6H204.8z"/>
	<path clip-path="url(#SVGID_2_)" d="M210.86,76.583h-2.894v-6h1.511v2.166h1.383c1.186,0,1.991,0.782,1.991,1.911
		C212.851,75.788,212.035,76.583,210.86,76.583 M209.43,73.922v1.486h1.153c0.484,0,0.782-0.287,0.782-0.748
		c0-0.45-0.298-0.738-0.782-0.738H209.43z"/>
	<polygon clip-path="url(#SVGID_2_)" points="217.494,76.583 217.494,74.176 215.571,74.176 215.571,76.583 214.061,76.583
		214.061,70.583 215.571,70.583 215.571,72.853 217.494,72.853 217.494,70.583 219.002,70.583 219.002,76.583 	"/>
	<polygon clip-path="url(#SVGID_2_)" points="224.279,76.583 224.279,72.921 222.17,76.583 220.662,76.583 220.662,70.583
		222.17,70.583 222.17,74.153 224.279,70.583 225.788,70.583 225.788,76.583 	"/>
	<polygon clip-path="url(#SVGID_2_)" points="231.086,76.583 229.578,74.143 228.956,74.856 228.956,76.583 227.458,76.583
		227.458,70.583 228.956,70.583 228.956,73.104 230.982,70.583 232.802,70.583 230.602,73.058 232.906,76.583 	"/>
	<path clip-path="url(#SVGID_2_)" d="M237.826,75.916c-0.461,0.483-1.106,0.736-1.866,0.736s-1.395-0.253-1.855-0.736
		c-0.507-0.53-0.679-1.141-0.679-2.34c0-1.186,0.185-1.796,0.679-2.325c0.461-0.484,1.096-0.737,1.855-0.737
		s1.405,0.253,1.866,0.737c0.495,0.518,0.68,1.14,0.68,2.303C238.505,74.775,238.333,75.386,237.826,75.916 M235.959,71.86
		c-1.026,0-1.037,1.036-1.037,1.81c0,1.15,0.312,1.635,1.037,1.635c1.002,0,1.048-0.944,1.048-1.729
		C237.007,72.806,236.95,71.86,235.959,71.86"/>
	<path clip-path="url(#SVGID_2_)" d="M242.985,76.583h-3.063v-6h2.961c1.129,0,1.854,0.644,1.854,1.646
		c0,0.565-0.241,0.968-0.761,1.269c0.576,0.299,0.854,0.713,0.854,1.358C244.829,75.915,244.115,76.583,242.985,76.583
		 M241.408,71.689v1.276h1.117c0.473,0,0.725-0.229,0.725-0.644c0-0.403-0.252-0.633-0.725-0.633H241.408z M242.593,74.084h-1.186
		v1.394h1.186c0.474,0,0.749-0.276,0.749-0.701C243.342,74.337,243.067,74.084,242.593,74.084"/>
	<path clip-path="url(#SVGID_2_)" d="M253.445,72.921c0.276,0.368,0.415,0.795,0.415,1.301c0,1.453-1.061,2.432-2.627,2.432
		s-2.626-0.979-2.626-2.432c0-0.519,0.139-0.944,0.427-1.312c0.16-0.207,0.276-0.322,0.599-0.554
		c-0.392-0.286-0.519-0.437-0.691-0.772c-0.149-0.288-0.229-0.597-0.229-0.943c0-1.348,1.058-2.326,2.521-2.326
		c1.451,0,2.512,0.978,2.512,2.316c0,0.356-0.08,0.665-0.23,0.953c-0.173,0.324-0.3,0.486-0.692,0.772
		C253.156,72.599,253.284,72.702,253.445,72.921 M251.233,73.036c-0.633,0-1.129,0.506-1.129,1.141c0,0.634,0.496,1.128,1.129,1.128
		c0.622,0,1.129-0.494,1.129-1.104C252.362,73.542,251.867,73.036,251.233,73.036 M251.233,69.661c-0.587,0-1.024,0.448-1.024,1.036
		c0,0.598,0.438,1.037,1.024,1.037c0.576,0,1.015-0.439,1.015-1.014C252.248,70.109,251.821,69.661,251.233,69.661"/>
	<rect x="255.533" y="72.599" clip-path="url(#SVGID_2_)" width="3.548" height="1.394"/>
	<polygon clip-path="url(#SVGID_2_)" points="262.119,76.583 262.119,69.994 260.449,71.446 260.449,69.833 262.119,68.382
		263.616,68.382 263.616,76.583 	"/>
	<polygon clip-path="url(#SVGID_2_)" points="268.374,76.583 268.374,69.994 266.704,71.446 266.704,69.833 268.374,68.382
		269.872,68.382 269.872,76.583 	"/>
	<polygon clip-path="url(#SVGID_2_)" points="278.914,76.583 277.406,74.143 276.783,74.856 276.783,76.583 275.285,76.583
		275.285,70.583 276.783,70.583 276.783,73.104 278.809,70.583 280.629,70.583 278.429,73.058 280.733,76.583 	"/>
	<path clip-path="url(#SVGID_2_)" d="M285.179,76.583v-4.676h-1.404l-0.069,2.338c-0.046,1.59-0.748,2.338-1.89,2.338h-0.795v-1.324
		h0.219c0.461,0,0.958-0.265,0.98-1.291l0.092-3.385h4.365v6H285.179z"/>
	<path clip-path="url(#SVGID_2_)" d="M291.434,76.583v-0.517c-0.265,0.253-0.391,0.345-0.621,0.436
		c-0.23,0.093-0.506,0.139-0.853,0.139c-1.278,0-2.027-0.691-2.027-1.865c0-1.083,0.783-1.751,2.05-1.751h1.416v-0.299
		c0-0.668-0.332-0.944-1.139-0.944c-0.53,0-0.772,0.103-1.13,0.495l-0.955-0.934c0.345-0.346,0.507-0.473,0.806-0.61
		c0.345-0.149,0.76-0.219,1.326-0.219c1.726,0,2.59,0.714,2.59,2.119v3.951H291.434z M290.213,74.05c-0.53,0-0.841,0.241-0.841,0.68
		c0,0.46,0.311,0.69,0.944,0.69c0.772,0,1.082-0.299,1.082-1.049V74.05H290.213z"/>
	<path clip-path="url(#SVGID_2_)" d="M298.023,76.435c-0.334,0.149-0.702,0.218-1.116,0.218c-1.718,0-2.696-1.129-2.696-3.121
		c0-1.889,1.003-3.018,2.696-3.018c0.414,0,0.794,0.07,1.116,0.207c0.322,0.138,0.495,0.254,0.854,0.599l-1.015,1.015
		c-0.345-0.358-0.588-0.474-0.968-0.474c-0.783,0-1.186,0.588-1.186,1.717c0,1.152,0.402,1.728,1.186,1.728
		c0.393,0,0.611-0.115,0.968-0.471l1.015,1.001C298.518,76.182,298.345,76.296,298.023,76.435"/>
	<path clip-path="url(#SVGID_2_)" d="M303.344,76.435c-0.334,0.149-0.701,0.218-1.116,0.218c-1.717,0-2.694-1.129-2.694-3.121
		c0-1.889,1.001-3.018,2.694-3.018c0.415,0,0.795,0.07,1.116,0.207c0.323,0.138,0.496,0.254,0.854,0.599l-1.014,1.015
		c-0.346-0.358-0.588-0.474-0.969-0.474c-0.783,0-1.186,0.588-1.186,1.717c0,1.152,0.402,1.728,1.186,1.728
		c0.393,0,0.612-0.115,0.969-0.471l1.014,1.001C303.84,76.182,303.667,76.296,303.344,76.435"/>
	<path clip-path="url(#SVGID_2_)" d="M309.3,75.916c-0.46,0.483-1.105,0.736-1.865,0.736s-1.396-0.253-1.855-0.736
		c-0.507-0.53-0.68-1.141-0.68-2.34c0-1.186,0.186-1.796,0.68-2.325c0.46-0.484,1.096-0.737,1.855-0.737s1.405,0.253,1.865,0.737
		c0.496,0.518,0.68,1.14,0.68,2.303C309.98,74.775,309.807,75.386,309.3,75.916 M307.435,71.86c-1.026,0-1.037,1.036-1.037,1.81
		c0,1.15,0.312,1.635,1.037,1.635c1.002,0,1.047-0.944,1.047-1.729C308.482,72.806,308.425,71.86,307.435,71.86"/>
	<path clip-path="url(#SVGID_2_)" d="M314.46,76.583h-3.063v-6h2.962c1.129,0,1.853,0.644,1.853,1.646
		c0,0.565-0.24,0.968-0.76,1.269c0.575,0.299,0.852,0.713,0.852,1.358C316.303,75.915,315.59,76.583,314.46,76.583 M312.883,71.689
		v1.276h1.118c0.472,0,0.725-0.229,0.725-0.644c0-0.403-0.253-0.633-0.725-0.633H312.883z M314.07,74.084h-1.187v1.394h1.187
		c0.473,0,0.749-0.276,0.749-0.701C314.819,74.337,314.542,74.084,314.07,74.084"/>
	<polygon clip-path="url(#SVGID_2_)" points="324.045,76.583 322.537,74.143 321.914,74.856 321.914,76.583 320.417,76.583
		320.417,70.583 321.914,70.583 321.914,73.104 323.941,70.583 325.761,70.583 323.56,73.058 325.865,76.583 	"/>
	<polygon clip-path="url(#SVGID_2_)" points="329.631,76.583 329.631,68.382 335.035,68.382 335.035,69.811 331.233,69.811
		331.233,71.734 334.47,71.734 334.47,73.163 331.233,73.163 331.233,75.155 335.035,75.155 335.035,76.583 	"/>
	<polygon clip-path="url(#SVGID_2_)" points="338.237,69.811 338.237,76.583 336.635,76.583 336.635,68.382 341.795,68.382
		341.795,69.811 	"/>
	<path clip-path="url(#SVGID_2_)" d="M347.889,72.079c0,0,0.024,0.658,0,0.727c0,0.933,0.011,2.119-0.806,2.948
		c-0.312,0.321-0.692,0.565-1.117,0.715c-0.335,0.126-0.714,0.185-1.118,0.185c-0.968,0-1.555-0.289-2.257-0.945l1.003-1.024
		c0.265,0.265,0.897,0.54,1.267,0.54c0.425,0,0.771-0.149,1.023-0.426c0.335-0.369,0.381-0.932,0.404-1.635h-2.385V71.77h2.372
		c-0.022-0.772-0.116-1.038-0.229-1.302c-0.185-0.449-0.656-0.726-1.186-0.726c-0.507,0-0.819,0.15-1.246,0.566l-1.001-1.073
		c0.68-0.633,1.302-0.92,2.247-0.92C347.21,68.314,347.889,70.052,347.889,72.079"/>
	<polygon clip-path="url(#SVGID_2_)" points="355.699,76.583 355.699,72.921 353.59,76.583 352.082,76.583 352.082,70.583
		353.59,70.583 353.59,74.153 355.699,70.583 357.208,70.583 357.208,76.583 	"/>
	<path clip-path="url(#SVGID_2_)" d="M366.63,75.755c-0.575,0.598-1.325,0.897-2.212,0.897c-0.886,0-1.646-0.31-2.222-0.897
		c-0.865-0.887-0.808-2.246-0.808-3.156v-0.449c0-1.636,0.174-2.292,0.808-2.938c0.575-0.587,1.336-0.898,2.222-0.898
		c0.876,0,1.637,0.311,2.212,0.898c0.576,0.588,0.817,1.371,0.817,2.696v0.575C367.448,73.658,367.505,74.845,366.63,75.755
		 M365.444,70.179c-0.253-0.287-0.61-0.437-1.025-0.437s-0.783,0.15-1.036,0.437c-0.369,0.404-0.392,1.176-0.392,2.189
		c0,1.002-0.047,1.979,0.392,2.419c0.276,0.275,0.621,0.437,1.036,0.437s0.772-0.149,1.025-0.437
		c0.335-0.38,0.403-0.783,0.403-2.453C365.847,70.985,365.767,70.536,365.444,70.179"/>
	<polygon clip-path="url(#SVGID_2_)" points="370.72,69.811 370.72,76.583 369.12,76.583 369.12,68.382 374.28,68.382
		374.28,69.811 	"/>
	<path clip-path="url(#SVGID_2_)" d="M380.373,72.079c0,0,0.024,0.658,0,0.727c0,0.933,0.011,2.119-0.806,2.948
		c-0.312,0.321-0.692,0.565-1.117,0.715c-0.335,0.126-0.715,0.185-1.117,0.185c-0.969,0-1.555-0.289-2.258-0.945l1.003-1.024
		c0.263,0.265,0.898,0.54,1.267,0.54c0.426,0,0.771-0.149,1.023-0.426c0.335-0.369,0.383-0.932,0.404-1.635h-2.386V71.77h2.374
		c-0.023-0.772-0.115-1.038-0.23-1.302c-0.185-0.449-0.656-0.726-1.186-0.726c-0.507,0-0.817,0.15-1.246,0.566l-1-1.073
		c0.68-0.633,1.301-0.92,2.246-0.92C379.694,68.314,380.373,70.052,380.373,72.079"/>
</g>
</svg>
