<?xml version="1.0" encoding="utf-8"?>
<!-- Generator: Adobe Illustrator 16.0.0, SVG Export Plug-In . SVG Version: 6.00 Build 0)  -->
<!DOCTYPE svg PUBLIC "-//W3C//DTD SVG 1.1//EN" "http://www.w3.org/Graphics/SVG/1.1/DTD/svg11.dtd">
<svg version="1.1" id="Layer_1" xmlns="http://www.w3.org/2000/svg" xmlns:xlink="http://www.w3.org/1999/xlink" x="0px" y="0px"
	 width="72.621px" height="65px" viewBox="0 0 72.621 65" enable-background="new 0 0 72.621 65" xml:space="preserve">
<g>
	<g>
		<defs>
			<rect id="SVGID_1_" x="-82.066" y="-239.372" width="454.787" height="588.547"/>
		</defs>
		<clipPath id="SVGID_2_">
			<use xlink:href="#SVGID_1_"  overflow="visible"/>
		</clipPath>
		<path clip-path="url(#SVGID_2_)" fill="#4C493D" d="M36.311,48.877l-21.609-7.87L0,35.657v0.024v2.146l14.702,5.354V55.09
			c0,2.474,3.384,4.67,8.626,6.059c3.662,0.973,8.235,1.549,13.199,1.549c12.052,0,21.826-3.405,21.826-7.607V43.953
			c0-0.31,0.003-0.622,0.003-0.933l0.007-0.002l14.259-5.19v-2.146v-0.024l-14.249,5.186L36.311,48.877z"/>
	</g>
	<g>
		<defs>
			<rect id="SVGID_3_" x="-82.066" y="-239.372" width="454.787" height="588.547"/>
		</defs>
		<clipPath id="SVGID_4_">
			<use xlink:href="#SVGID_3_"  overflow="visible"/>
		</clipPath>
		<path clip-path="url(#SVGID_4_)" fill="#4C493D" d="M61.629,29.313l-0.011-0.005c-0.541-0.188-3.264-1.187-5.243-1.913
			c4.748-7.823,3.956-22.668,3.919-23.304l-0.103-1.772l-1.741,0.348l0.303,1.513c0,0,0.879,15.252-3.853,22.674
			c-0.164,0.262-0.339,0.52-0.524,0.762c-0.283,0.38-0.591,0.736-0.921,1.075c-0.308,0.316-0.634,0.61-0.973,0.89
			c-0.113,0.093-0.234,0.176-0.35,0.265c-0.232,0.178-0.466,0.355-0.709,0.518c-0.143,0.096-0.291,0.184-0.438,0.275
			c-0.228,0.141-0.457,0.28-0.692,0.409c-0.159,0.088-0.319,0.17-0.481,0.252c-0.232,0.118-0.467,0.233-0.705,0.341
			c-0.166,0.075-0.332,0.148-0.5,0.218c-0.242,0.102-0.487,0.198-0.732,0.29c-0.165,0.062-0.33,0.124-0.497,0.182
			c-0.258,0.089-0.517,0.171-0.776,0.25c-0.154,0.047-0.308,0.097-0.461,0.141c-0.292,0.083-0.583,0.157-0.873,0.229
			c-0.121,0.03-0.243,0.063-0.363,0.093c-0.409,0.095-0.815,0.181-1.216,0.256c-0.064,0.013-0.125,0.021-0.189,0.033
			c-0.337,0.061-0.671,0.117-0.998,0.166c-0.141,0.021-0.275,0.037-0.413,0.057c-0.245,0.033-0.489,0.066-0.725,0.093
			c-0.15,0.018-0.294,0.032-0.44,0.046c-0.215,0.022-0.429,0.043-0.635,0.061c-0.144,0.012-0.285,0.022-0.424,0.033
			c-0.194,0.014-0.385,0.026-0.57,0.037c-0.131,0.008-0.26,0.014-0.385,0.02c-0.179,0.009-0.349,0.016-0.514,0.021
			c-0.112,0.003-0.225,0.007-0.33,0.01c-0.166,0.003-0.319,0.006-0.467,0.007c-0.083,0.001-0.174,0.003-0.251,0.003
			c-0.149,0-0.28-0.002-0.407-0.003c-0.059,0-0.129,0-0.183-0.002c-0.167-0.003-0.314-0.006-0.429-0.01
			c-0.077-0.006-0.144-0.006-0.195-0.011c-0.044,0-0.077-0.001-0.101-0.003c-0.022-0.001-0.034-0.002-0.034-0.002
			s-0.029-0.078-0.078-0.229c-0.017-0.05-0.035-0.107-0.055-0.174c-0.163-0.499-0.448-1.439-0.734-2.668
			c-0.191-0.819-0.381-1.766-0.536-2.797c-0.232-1.546-0.381-3.279-0.325-5.048c0.013-0.361,0.034-0.722,0.063-1.084
			c0.031-0.362,0.071-0.725,0.122-1.088c0.309-2.247,1.034-4.449,2.422-6.301c0.771-1.028,1.785-1.975,2.947-2.845
			c6.837-5.098,18.487-7.355,18.925-7.443l-0.325-1.509c-2.087,0.415-12.839,2.732-19.521,7.715c-1.35,1.009-2.446,2.07-3.259,3.156
			c-1.227,1.636-2.073,3.615-2.526,5.895c-4.004-10.889-9.84-14.768-9.84-14.768l-1.986,2.11c5.515,4.403,8.55,9.886,10.52,14.953
			L0,33.31v0.2l14.701,5.35l21.61,7.871l22.062-8.035l14.249-5.186v-0.2L61.629,29.313z"/>
	</g>
	<g>
		<defs>
			<rect id="SVGID_5_" x="-82.066" y="-239.372" width="454.787" height="588.547"/>
		</defs>
		<clipPath id="SVGID_6_">
			<use xlink:href="#SVGID_5_"  overflow="visible"/>
		</clipPath>
		<path clip-path="url(#SVGID_6_)" fill="#4C493D" d="M99.501,23.002c0.195,0.485,0.323,1.001,0.323,1.552
			c0,0.615-0.097,1.229-0.323,1.778h-9.216v6.466h7.6c0.194,0.518,0.323,1.067,0.323,1.617c0,0.582-0.096,1.164-0.323,1.714h-7.6
			v6.822h9.539c0.194,0.519,0.323,1.067,0.323,1.617c0,0.582-0.096,1.163-0.323,1.714H86.147V23.002H99.501z"/>
	</g>
	<g>
		<defs>
			<rect id="SVGID_7_" x="-82.066" y="-239.372" width="454.787" height="588.547"/>
		</defs>
		<clipPath id="SVGID_8_">
			<use xlink:href="#SVGID_7_"  overflow="visible"/>
		</clipPath>
		<path clip-path="url(#SVGID_8_)" fill="#4C493D" d="M116.592,23.002c0,0,0.323,0.614,0.323,1.746c0,1.002-0.323,1.811-0.323,1.811
			h-8.794v19.434c0,0-0.712,0.291-2.103,0.291c-1.358,0-2.038-0.291-2.038-0.291v-22.99H116.592z"/>
	</g>
	<g>
		<defs>
			<rect id="SVGID_9_" x="-82.066" y="-239.372" width="454.787" height="588.547"/>
		</defs>
		<clipPath id="SVGID_10_">
			<use xlink:href="#SVGID_9_"  overflow="visible"/>
		</clipPath>
		<path clip-path="url(#SVGID_10_)" fill="#4C493D" d="M125.173,22.678c6.564,0,10.121,4.171,10.121,11.965
			c0,7.792-3.557,11.963-10.121,11.963c-3.912,0-6.241-1.131-6.241-1.131c0-1.197,0.453-2.457,1.229-3.104
			c0,0,2.069,0.679,4.559,0.679c3.298,0,5.821-1.423,6.176-6.92h-7.89c0,0-0.324-0.679-0.324-1.714s0.324-1.617,0.324-1.617h7.857
			c-0.453-5.141-2.91-6.628-6.144-6.628c-2.231,0-4.236,0.679-4.236,0.679c-0.873-0.776-1.228-2.004-1.228-3.039
			C119.257,23.811,121.422,22.678,125.173,22.678"/>
	</g>
	<g>
		<defs>
			<rect id="SVGID_11_" x="-82.066" y="-239.372" width="454.787" height="588.547"/>
		</defs>
		<clipPath id="SVGID_12_">
			<use xlink:href="#SVGID_11_"  overflow="visible"/>
		</clipPath>
		<path clip-path="url(#SVGID_12_)" fill="#4C493D" d="M139.238,38.393c0,0-0.228-0.581-0.228-1.487
			c0-0.905,0.228-1.485,0.228-1.485h7.114c0,0,0.227,0.58,0.227,1.485c0,0.906-0.227,1.487-0.227,1.487H139.238z"/>
	</g>
	<g>
		<defs>
			<rect id="SVGID_13_" x="-82.066" y="-239.372" width="454.787" height="588.547"/>
		</defs>
		<clipPath id="SVGID_14_">
			<use xlink:href="#SVGID_13_"  overflow="visible"/>
		</clipPath>
		<path clip-path="url(#SVGID_14_)" fill="#4C493D" d="M155.146,45.992c0,0-0.679,0.291-2.037,0.291
			c-1.52,0-2.103-0.291-2.103-0.291v-22.99h8.667c4.364,0,7.211,2.942,7.211,7.275c0,4.333-2.847,7.276-7.211,7.276h-4.527V45.992z
			 M159.09,34.125c2.264,0,3.461-1.422,3.461-3.847c0-2.426-1.197-3.849-3.461-3.849h-3.943v7.696H159.09z"/>
	</g>
	<g>
		<defs>
			<rect id="SVGID_15_" x="-82.066" y="-239.372" width="454.787" height="588.547"/>
		</defs>
		<clipPath id="SVGID_16_">
			<use xlink:href="#SVGID_15_"  overflow="visible"/>
		</clipPath>
		<path clip-path="url(#SVGID_16_)" fill="#4C493D" d="M172.189,39.039c0.291,3.299,1.746,4.14,4.01,4.14
			c2.166,0,3.783-0.776,3.783-0.776c0.68,0.648,1.068,1.778,1.132,2.878c0,0-1.908,1.325-5.497,1.325
			c-5.27,0-7.599-3.071-7.599-8.924c0-6.112,2.909-8.729,7.372-8.729c4.01,0,6.629,2.069,6.629,6.692
			c0,2.069-0.355,3.395-0.355,3.395H172.189z M175.391,32.121c-1.648,0-2.878,1.099-3.168,4.106h5.69
			c0.032-0.355,0.063-0.711,0.063-1.067C177.977,33.479,177.428,32.121,175.391,32.121"/>
	</g>
	<g>
		<defs>
			<rect id="SVGID_17_" x="-82.066" y="-239.372" width="454.787" height="588.547"/>
		</defs>
		<clipPath id="SVGID_18_">
			<use xlink:href="#SVGID_17_"  overflow="visible"/>
		</clipPath>
		<path clip-path="url(#SVGID_18_)" fill="#4C493D" d="M189.415,46.024c0,0-0.841,0.259-2.069,0.259s-2.004-0.259-2.004-0.259
			v-16.75h13.516v16.75c0,0-0.809,0.259-2.07,0.259c-1.131,0-2.004-0.259-2.004-0.259V32.638h-5.368V46.024z"/>
	</g>
	<g>
		<defs>
			<rect id="SVGID_19_" x="-82.066" y="-239.372" width="454.787" height="588.547"/>
		</defs>
		<clipPath id="SVGID_20_">
			<use xlink:href="#SVGID_19_"  overflow="visible"/>
		</clipPath>
		<path clip-path="url(#SVGID_20_)" fill="#4C493D" d="M206.512,39.039c0.292,3.299,1.747,4.14,4.011,4.14
			c2.166,0,3.783-0.776,3.783-0.776c0.679,0.648,1.067,1.778,1.13,2.878c0,0-1.906,1.325-5.496,1.325
			c-5.27,0-7.599-3.071-7.599-8.924c0-6.112,2.909-8.729,7.373-8.729c4.01,0,6.628,2.069,6.628,6.692
			c0,2.069-0.355,3.395-0.355,3.395H206.512z M209.713,32.121c-1.649,0-2.878,1.099-3.17,4.106h5.691
			c0.033-0.355,0.065-0.711,0.065-1.067C212.301,33.479,211.75,32.121,209.713,32.121"/>
	</g>
	<g>
		<defs>
			<rect id="SVGID_21_" x="-82.066" y="-239.372" width="454.787" height="588.547"/>
		</defs>
		<clipPath id="SVGID_22_">
			<use xlink:href="#SVGID_21_"  overflow="visible"/>
		</clipPath>
		<path clip-path="url(#SVGID_22_)" fill="#4C493D" d="M231.836,29.274c0,0,0.324,0.679,0.324,1.714
			c0,1.003-0.324,1.682-0.324,1.682h-4.623v13.354c0,0-0.712,0.259-2.036,0.259c-1.424,0-2.037-0.259-2.037-0.259V32.67h-4.624
			c0,0-0.356-0.679-0.356-1.682c0-1.035,0.356-1.714,0.356-1.714H231.836z"/>
	</g>
	<g>
		<defs>
			<rect id="SVGID_23_" x="-82.066" y="-239.372" width="454.787" height="588.547"/>
		</defs>
		<clipPath id="SVGID_24_">
			<use xlink:href="#SVGID_23_"  overflow="visible"/>
		</clipPath>
		<path clip-path="url(#SVGID_24_)" fill="#4C493D" d="M247.493,29.274c1.195,0,2.036,0.259,2.036,0.259v16.491
			c0,0-0.775,0.259-1.972,0.259c-1.261,0-2.103-0.259-2.103-0.259v-4.107c0-4.235,0.098-6.982,0.195-7.081h-0.098
			c0.228,0.065-1.648,3.332-3.138,5.853l-3.2,5.336c0,0-0.777,0.259-2.07,0.259c-1.229,0-2.005-0.259-2.005-0.259V29.534
			c0,0,0.776-0.258,1.974-0.258c1.324,0,2.102,0.258,2.102,0.258v4.14c0,3.201-0.097,7.048-0.195,7.081h0.099
			c0,0,0.679-1.714,1.552-3.202l4.785-8.019C245.455,29.534,246.231,29.274,247.493,29.274"/>
	</g>
	<g>
		<defs>
			<rect id="SVGID_25_" x="-82.066" y="-239.372" width="454.787" height="588.547"/>
		</defs>
		<clipPath id="SVGID_26_">
			<use xlink:href="#SVGID_25_"  overflow="visible"/>
		</clipPath>
		<path clip-path="url(#SVGID_26_)" fill="#4C493D" d="M265.826,29.274c0,0,0.322,0.679,0.322,1.714
			c0,1.003-0.322,1.682-0.322,1.682h-4.625v13.354c0,0-0.712,0.259-2.037,0.259c-1.423,0-2.035-0.259-2.035-0.259V32.67h-4.625
			c0,0-0.355-0.679-0.355-1.682c0-1.035,0.355-1.714,0.355-1.714H265.826z"/>
	</g>
	<g>
		<defs>
			<rect id="SVGID_27_" x="-82.066" y="-239.372" width="454.787" height="588.547"/>
		</defs>
		<clipPath id="SVGID_28_">
			<use xlink:href="#SVGID_27_"  overflow="visible"/>
		</clipPath>
		<path clip-path="url(#SVGID_28_)" fill="#4C493D" d="M275.3,28.952c4.591,0,7.437,2.425,7.437,8.827s-2.878,8.826-7.437,8.826
			c-4.562,0-7.438-2.424-7.438-8.826S270.739,28.952,275.3,28.952 M275.3,32.056c-1.973,0-3.267,1.131-3.267,5.723
			s1.294,5.723,3.267,5.723c1.971,0,3.232-1.131,3.232-5.723S277.271,32.056,275.3,32.056"/>
	</g>
	<g>
		<defs>
			<rect id="SVGID_29_" x="-82.066" y="-239.372" width="454.787" height="588.547"/>
		</defs>
		<clipPath id="SVGID_30_">
			<use xlink:href="#SVGID_29_"  overflow="visible"/>
		</clipPath>
		<path clip-path="url(#SVGID_30_)" fill="#4C493D" d="M294.029,28.952c3.621,0,5.983,2.23,5.983,8.827
			c0,6.596-2.362,8.826-5.983,8.826c-2.067,0-3.459-0.581-4.363-1.68v6.69c0,0-0.711,0.259-2.07,0.259
			c-1.357,0-2.005-0.259-2.005-0.259V29.534c0,0,0.647-0.259,2.005-0.259c1.359,0,2.07,0.259,2.07,0.259v1.099
			C290.57,29.534,291.962,28.952,294.029,28.952 M292.574,32.25c-1.81,0-2.908,1.454-2.908,3.492v4.074
			c0,2.037,1.099,3.492,2.908,3.492c2.037,0,3.234-0.971,3.234-5.529C295.809,33.22,294.612,32.25,292.574,32.25"/>
	</g>
	<g>
		<defs>
			<rect id="SVGID_31_" x="-82.066" y="-239.372" width="454.787" height="588.547"/>
		</defs>
		<clipPath id="SVGID_32_">
			<use xlink:href="#SVGID_31_"  overflow="visible"/>
		</clipPath>
		<polygon clip-path="url(#SVGID_32_)" fill="#4C493D" points="88.846,59.229 88.846,55.754 87.417,55.754 87.417,59.229 
			86.295,59.229 86.295,54.77 89.967,54.77 89.967,59.229 		"/>
	</g>
	<g>
		<defs>
			<rect id="SVGID_33_" x="-82.066" y="-239.372" width="454.787" height="588.547"/>
		</defs>
		<clipPath id="SVGID_34_">
			<use xlink:href="#SVGID_33_"  overflow="visible"/>
		</clipPath>
		<path clip-path="url(#SVGID_34_)" fill="#4C493D" d="M94.29,58.732c-0.342,0.359-0.822,0.547-1.387,0.547
			c-0.564,0-1.035-0.188-1.377-0.547c-0.377-0.393-0.505-0.848-0.505-1.738c0-0.881,0.137-1.334,0.505-1.728
			c0.342-0.36,0.813-0.548,1.377-0.548c0.565,0,1.045,0.188,1.387,0.548c0.369,0.385,0.505,0.847,0.505,1.712
			C94.795,57.885,94.667,58.34,94.29,58.732 M92.903,55.719c-0.762,0-0.77,0.77-0.77,1.346c0,0.854,0.231,1.215,0.77,1.215
			c0.745,0,0.779-0.701,0.779-1.285C93.682,56.422,93.64,55.719,92.903,55.719"/>
	</g>
	<g>
		<defs>
			<rect id="SVGID_35_" x="-82.066" y="-239.372" width="454.787" height="588.547"/>
		</defs>
		<clipPath id="SVGID_36_">
			<use xlink:href="#SVGID_35_"  overflow="visible"/>
		</clipPath>
		<path clip-path="url(#SVGID_36_)" fill="#4C493D" d="M98.938,60.324v-1.096h-2.594v1.096h-1.052v-2.078h0.479
			c0.291-0.797,0.454-1.465,0.454-3.057v-0.419h3.201v3.476h0.565v2.078H98.938z M98.313,55.754h-0.993c0,0.138,0,0.514-0.009,0.625
			c-0.034,0.83-0.196,1.344-0.385,1.867h1.387V55.754z"/>
	</g>
	<g>
		<defs>
			<rect id="SVGID_37_" x="-82.066" y="-239.372" width="454.787" height="588.547"/>
		</defs>
		<clipPath id="SVGID_38_">
			<use xlink:href="#SVGID_37_"  overflow="visible"/>
		</clipPath>
		<polygon clip-path="url(#SVGID_38_)" fill="#4C493D" points="101.951,55.754 101.951,59.229 100.838,59.229 100.838,54.77 
			103.792,54.77 103.792,55.754 		"/>
	</g>
	<g>
		<defs>
			<rect id="SVGID_39_" x="-82.066" y="-239.372" width="454.787" height="588.547"/>
		</defs>
		<clipPath id="SVGID_40_">
			<use xlink:href="#SVGID_39_"  overflow="visible"/>
		</clipPath>
		<path clip-path="url(#SVGID_40_)" fill="#4C493D" d="M107.455,58.732c-0.342,0.359-0.822,0.547-1.387,0.547
			c-0.564,0-1.036-0.188-1.377-0.547c-0.377-0.393-0.505-0.848-0.505-1.738c0-0.881,0.137-1.334,0.505-1.728
			c0.342-0.36,0.813-0.548,1.377-0.548c0.565,0,1.044,0.188,1.387,0.548c0.369,0.385,0.505,0.847,0.505,1.712
			C107.96,57.885,107.832,58.34,107.455,58.732 M106.068,55.719c-0.762,0-0.771,0.77-0.771,1.346c0,0.854,0.232,1.215,0.771,1.215
			c0.746,0,0.779-0.701,0.779-1.285C106.847,56.422,106.804,55.719,106.068,55.719"/>
	</g>
	<g>
		<defs>
			<rect id="SVGID_41_" x="-82.066" y="-239.372" width="454.787" height="588.547"/>
		</defs>
		<clipPath id="SVGID_42_">
			<use xlink:href="#SVGID_41_"  overflow="visible"/>
		</clipPath>
		<polygon clip-path="url(#SVGID_42_)" fill="#4C493D" points="110.819,55.754 110.819,59.229 109.698,59.229 109.698,55.754 
			108.388,55.754 108.388,54.77 112.104,54.77 112.104,55.754 		"/>
	</g>
	<g>
		<defs>
			<rect id="SVGID_43_" x="-82.066" y="-239.372" width="454.787" height="588.547"/>
		</defs>
		<clipPath id="SVGID_44_">
			<use xlink:href="#SVGID_43_"  overflow="visible"/>
		</clipPath>
		<path clip-path="url(#SVGID_44_)" fill="#4C493D" d="M115.801,58.732c-0.343,0.359-0.821,0.547-1.387,0.547
			c-0.565,0-1.035-0.188-1.378-0.547c-0.376-0.393-0.505-0.848-0.505-1.738c0-0.881,0.138-1.334,0.505-1.728
			c0.343-0.36,0.813-0.548,1.378-0.548c0.565,0,1.044,0.188,1.387,0.548c0.368,0.385,0.505,0.847,0.505,1.712
			C116.307,57.885,116.178,58.34,115.801,58.732 M114.415,55.719c-0.762,0-0.77,0.77-0.77,1.346c0,0.854,0.231,1.215,0.77,1.215
			c0.745,0,0.779-0.701,0.779-1.285C115.193,56.422,115.151,55.719,114.415,55.719"/>
	</g>
	<g>
		<defs>
			<rect id="SVGID_45_" x="-82.066" y="-239.372" width="454.787" height="588.547"/>
		</defs>
		<clipPath id="SVGID_46_">
			<use xlink:href="#SVGID_45_"  overflow="visible"/>
		</clipPath>
		<path clip-path="url(#SVGID_46_)" fill="#4C493D" d="M119.636,59.229h-2.277V54.77h2.2c0.839,0,1.378,0.479,1.378,1.224
			c0,0.42-0.179,0.72-0.564,0.942c0.428,0.223,0.634,0.53,0.634,1.01C121.007,58.732,120.475,59.229,119.636,59.229 M118.464,55.592
			v0.948h0.83c0.351,0,0.539-0.17,0.539-0.479c0-0.3-0.188-0.47-0.539-0.47H118.464L118.464,55.592z M119.346,57.371h-0.881v1.037
			h0.881c0.352,0,0.556-0.205,0.556-0.521C119.901,57.56,119.697,57.371,119.346,57.371"/>
	</g>
	<g>
		<defs>
			<rect id="SVGID_47_" x="-82.066" y="-239.372" width="454.787" height="588.547"/>
		</defs>
		<clipPath id="SVGID_48_">
			<use xlink:href="#SVGID_47_"  overflow="visible"/>
		</clipPath>
		<polygon clip-path="url(#SVGID_48_)" fill="#4C493D" points="124.772,59.229 123.651,57.416 123.188,57.945 123.188,59.229 
			122.075,59.229 122.075,54.77 123.188,54.77 123.188,56.644 124.695,54.77 126.047,54.77 124.412,56.609 126.125,59.229 		"/>
	</g>
	<g>
		<defs>
			<rect id="SVGID_49_" x="-82.066" y="-239.372" width="454.787" height="588.547"/>
		</defs>
		<clipPath id="SVGID_50_">
			<use xlink:href="#SVGID_49_"  overflow="visible"/>
		</clipPath>
		<path clip-path="url(#SVGID_50_)" fill="#4C493D" d="M129.138,59.229v-0.384c-0.196,0.188-0.291,0.257-0.462,0.323
			c-0.172,0.07-0.376,0.104-0.633,0.104c-0.951,0-1.507-0.514-1.507-1.386c0-0.805,0.583-1.301,1.524-1.301h1.052v-0.223
			c0-0.496-0.248-0.701-0.847-0.701c-0.394,0-0.573,0.076-0.839,0.368l-0.711-0.694c0.257-0.257,0.376-0.352,0.6-0.454
			c0.256-0.11,0.564-0.162,0.985-0.162c1.283,0,1.925,0.531,1.925,1.574v2.937L129.138,59.229L129.138,59.229z M128.23,57.346
			c-0.394,0-0.624,0.18-0.624,0.506c0,0.342,0.23,0.513,0.701,0.513c0.574,0,0.805-0.222,0.805-0.779v-0.239H128.23z"/>
	</g>
	<g>
		<defs>
			<rect id="SVGID_51_" x="-82.066" y="-239.372" width="454.787" height="588.547"/>
		</defs>
		<clipPath id="SVGID_52_">
			<use xlink:href="#SVGID_51_"  overflow="visible"/>
		</clipPath>
		<polygon clip-path="url(#SVGID_52_)" fill="#4C493D" points="133.4,59.229 133.4,54.77 134.521,54.77 134.521,58.244 
			135.746,58.244 135.746,54.77 136.859,54.77 136.859,58.244 138.083,58.244 138.083,54.77 139.195,54.77 139.195,59.229 		"/>
	</g>
	<g>
		<defs>
			<rect id="SVGID_53_" x="-82.066" y="-239.372" width="454.787" height="588.547"/>
		</defs>
		<clipPath id="SVGID_54_">
			<use xlink:href="#SVGID_53_"  overflow="visible"/>
		</clipPath>
		<polygon clip-path="url(#SVGID_54_)" fill="#4C493D" points="143.143,59.229 142.021,57.416 141.558,57.945 141.558,59.229 
			140.445,59.229 140.445,54.77 141.558,54.77 141.558,56.644 143.065,54.77 144.417,54.77 142.782,56.609 144.494,59.229 		"/>
	</g>
	<g>
		<defs>
			<rect id="SVGID_55_" x="-82.066" y="-239.372" width="454.787" height="588.547"/>
		</defs>
		<clipPath id="SVGID_56_">
			<use xlink:href="#SVGID_55_"  overflow="visible"/>
		</clipPath>
		<path clip-path="url(#SVGID_56_)" fill="#4C493D" d="M148.149,58.732c-0.342,0.359-0.822,0.547-1.386,0.547
			c-0.565,0-1.036-0.188-1.378-0.547c-0.376-0.393-0.504-0.848-0.504-1.738c0-0.881,0.137-1.334,0.504-1.728
			c0.343-0.36,0.814-0.548,1.378-0.548s1.044,0.188,1.386,0.548c0.369,0.385,0.505,0.847,0.505,1.712
			C148.654,57.885,148.526,58.34,148.149,58.732 M146.763,55.719c-0.761,0-0.77,0.77-0.77,1.346c0,0.854,0.232,1.215,0.77,1.215
			c0.745,0,0.779-0.701,0.779-1.285C147.541,56.422,147.5,55.719,146.763,55.719"/>
	</g>
	<g>
		<defs>
			<rect id="SVGID_57_" x="-82.066" y="-239.372" width="454.787" height="588.547"/>
		</defs>
		<clipPath id="SVGID_58_">
			<use xlink:href="#SVGID_57_"  overflow="visible"/>
		</clipPath>
		<path clip-path="url(#SVGID_58_)" fill="#4C493D" d="M152.189,59.229v-3.475h-1.045l-0.051,1.737
			c-0.033,1.182-0.556,1.737-1.404,1.737h-0.591v-0.984h0.163c0.342,0,0.71-0.196,0.728-0.959l0.069-2.516h3.244v4.459H152.189z"/>
	</g>
	<g>
		<defs>
			<rect id="SVGID_59_" x="-82.066" y="-239.372" width="454.787" height="588.547"/>
		</defs>
		<clipPath id="SVGID_60_">
			<use xlink:href="#SVGID_59_"  overflow="visible"/>
		</clipPath>
		<path clip-path="url(#SVGID_60_)" fill="#4C493D" d="M156.693,59.229h-2.15V54.77h1.123v1.609h1.027
			c0.881,0,1.479,0.582,1.479,1.421C158.173,58.638,157.566,59.229,156.693,59.229 M155.631,57.252v1.104h0.856
			c0.36,0,0.581-0.213,0.581-0.556c0-0.335-0.221-0.548-0.581-0.548H155.631z"/>
	</g>
	<g>
		<defs>
			<rect id="SVGID_61_" x="-82.066" y="-239.372" width="454.787" height="588.547"/>
		</defs>
		<clipPath id="SVGID_62_">
			<use xlink:href="#SVGID_61_"  overflow="visible"/>
		</clipPath>
		<polygon clip-path="url(#SVGID_62_)" fill="#4C493D" points="161.623,59.229 161.623,57.439 160.193,57.439 160.193,59.229 
			159.072,59.229 159.072,54.77 160.193,54.77 160.193,56.457 161.623,56.457 161.623,54.77 162.744,54.77 162.744,59.229 		"/>
	</g>
	<g>
		<defs>
			<rect id="SVGID_63_" x="-82.066" y="-239.372" width="454.787" height="588.547"/>
		</defs>
		<clipPath id="SVGID_64_">
			<use xlink:href="#SVGID_63_"  overflow="visible"/>
		</clipPath>
		<polygon clip-path="url(#SVGID_64_)" fill="#4C493D" points="166.665,59.229 166.665,56.508 165.098,59.229 163.977,59.229 
			163.977,54.77 165.098,54.77 165.098,57.423 166.665,54.77 167.787,54.77 167.787,59.229 		"/>
	</g>
	<g>
		<defs>
			<rect id="SVGID_65_" x="-82.066" y="-239.372" width="454.787" height="588.547"/>
		</defs>
		<clipPath id="SVGID_66_">
			<use xlink:href="#SVGID_65_"  overflow="visible"/>
		</clipPath>
		<polygon clip-path="url(#SVGID_66_)" fill="#4C493D" points="171.724,59.229 170.604,57.416 170.141,57.945 170.141,59.229 
			169.027,59.229 169.027,54.77 170.141,54.77 170.141,56.644 171.646,54.77 172.998,54.77 171.363,56.609 173.076,59.229 		"/>
	</g>
	<g>
		<defs>
			<rect id="SVGID_67_" x="-82.066" y="-239.372" width="454.787" height="588.547"/>
		</defs>
		<clipPath id="SVGID_68_">
			<use xlink:href="#SVGID_67_"  overflow="visible"/>
		</clipPath>
		<path clip-path="url(#SVGID_68_)" fill="#4C493D" d="M176.732,58.732c-0.343,0.359-0.822,0.547-1.387,0.547
			s-1.037-0.188-1.379-0.547c-0.377-0.393-0.504-0.848-0.504-1.738c0-0.881,0.137-1.334,0.504-1.728
			c0.343-0.36,0.814-0.548,1.379-0.548s1.044,0.188,1.387,0.548c0.367,0.385,0.505,0.847,0.505,1.712
			C177.236,57.885,177.109,58.34,176.732,58.732 M175.345,55.719c-0.763,0-0.771,0.77-0.771,1.346c0,0.854,0.232,1.215,0.771,1.215
			c0.745,0,0.778-0.701,0.778-1.285C176.123,56.422,176.081,55.719,175.345,55.719"/>
	</g>
	<g>
		<defs>
			<rect id="SVGID_69_" x="-82.066" y="-239.372" width="454.787" height="588.547"/>
		</defs>
		<clipPath id="SVGID_70_">
			<use xlink:href="#SVGID_69_"  overflow="visible"/>
		</clipPath>
		<path clip-path="url(#SVGID_70_)" fill="#4C493D" d="M180.566,59.229h-2.277V54.77h2.201c0.839,0,1.377,0.479,1.377,1.224
			c0,0.42-0.179,0.72-0.564,0.942c0.428,0.223,0.635,0.53,0.635,1.01C181.936,58.732,181.406,59.229,180.566,59.229 M179.395,55.592
			v0.948h0.83c0.352,0,0.538-0.17,0.538-0.479c0-0.3-0.187-0.47-0.538-0.47H179.395L179.395,55.592z M180.274,57.371h-0.882v1.037
			h0.882c0.353,0,0.557-0.205,0.557-0.521C180.831,57.56,180.627,57.371,180.274,57.371"/>
	</g>
	<g>
		<defs>
			<rect id="SVGID_71_" x="-82.066" y="-239.372" width="454.787" height="588.547"/>
		</defs>
		<clipPath id="SVGID_72_">
			<use xlink:href="#SVGID_71_"  overflow="visible"/>
		</clipPath>
		<path clip-path="url(#SVGID_72_)" fill="#4C493D" d="M188.339,56.508c0.205,0.273,0.308,0.59,0.308,0.967
			c0,1.079-0.787,1.807-1.951,1.807s-1.951-0.728-1.951-1.807c0-0.387,0.103-0.702,0.316-0.976c0.119-0.153,0.205-0.239,0.445-0.411
			c-0.291-0.213-0.386-0.325-0.514-0.574c-0.11-0.214-0.17-0.443-0.17-0.701c0-1.001,0.786-1.729,1.873-1.729
			c1.078,0,1.867,0.728,1.867,1.722c0,0.265-0.06,0.494-0.171,0.708c-0.128,0.241-0.224,0.361-0.515,0.574
			C188.124,56.268,188.219,56.345,188.339,56.508 M186.695,56.593c-0.471,0-0.84,0.376-0.84,0.849c0,0.471,0.369,0.838,0.84,0.838
			c0.462,0,0.839-0.367,0.839-0.82C187.534,56.969,187.166,56.593,186.695,56.593 M186.695,54.085c-0.437,0-0.762,0.333-0.762,0.77
			c0,0.444,0.326,0.771,0.762,0.771c0.428,0,0.754-0.326,0.754-0.753C187.449,54.418,187.132,54.085,186.695,54.085"/>
	</g>
	<g>
		<defs>
			<rect id="SVGID_73_" x="-82.066" y="-239.372" width="454.787" height="588.547"/>
		</defs>
		<clipPath id="SVGID_74_">
			<use xlink:href="#SVGID_73_"  overflow="visible"/>
		</clipPath>
		<rect x="189.891" y="56.268" clip-path="url(#SVGID_74_)" fill="#4C493D" width="2.637" height="1.037"/>
	</g>
	<g>
		<defs>
			<rect id="SVGID_75_" x="-82.066" y="-239.372" width="454.787" height="588.547"/>
		</defs>
		<clipPath id="SVGID_76_">
			<use xlink:href="#SVGID_75_"  overflow="visible"/>
		</clipPath>
		<polygon clip-path="url(#SVGID_76_)" fill="#4C493D" points="194.785,59.229 194.785,54.332 193.543,55.411 193.543,54.213 
			194.785,53.135 195.896,53.135 195.896,59.229 		"/>
	</g>
	<g>
		<defs>
			<rect id="SVGID_77_" x="-82.066" y="-239.372" width="454.787" height="588.547"/>
		</defs>
		<clipPath id="SVGID_78_">
			<use xlink:href="#SVGID_77_"  overflow="visible"/>
		</clipPath>
		<polygon clip-path="url(#SVGID_78_)" fill="#4C493D" points="199.433,59.229 199.433,54.332 198.191,55.411 198.191,54.213 
			199.433,53.135 200.546,53.135 200.546,59.229 		"/>
	</g>
	<g>
		<defs>
			<rect id="SVGID_79_" x="-82.066" y="-239.372" width="454.787" height="588.547"/>
		</defs>
		<clipPath id="SVGID_80_">
			<use xlink:href="#SVGID_79_"  overflow="visible"/>
		</clipPath>
		<polygon clip-path="url(#SVGID_80_)" fill="#4C493D" points="207.266,59.229 206.145,57.416 205.682,57.945 205.682,59.229 
			204.568,59.229 204.568,54.77 205.682,54.77 205.682,56.644 207.188,54.77 208.539,54.77 206.904,56.609 208.617,59.229 		"/>
	</g>
	<g>
		<defs>
			<rect id="SVGID_81_" x="-82.066" y="-239.372" width="454.787" height="588.547"/>
		</defs>
		<clipPath id="SVGID_82_">
			<use xlink:href="#SVGID_81_"  overflow="visible"/>
		</clipPath>
		<path clip-path="url(#SVGID_82_)" fill="#4C493D" d="M211.921,59.229v-3.475h-1.044l-0.051,1.737
			c-0.034,1.182-0.556,1.737-1.404,1.737h-0.591v-0.984h0.163c0.342,0,0.711-0.196,0.728-0.959l0.068-2.516h3.244v4.459H211.921z"/>
	</g>
	<g>
		<defs>
			<rect id="SVGID_83_" x="-82.066" y="-239.372" width="454.787" height="588.547"/>
		</defs>
		<clipPath id="SVGID_84_">
			<use xlink:href="#SVGID_83_"  overflow="visible"/>
		</clipPath>
		<path clip-path="url(#SVGID_84_)" fill="#4C493D" d="M216.568,59.229v-0.384c-0.196,0.188-0.29,0.257-0.461,0.323
			c-0.171,0.07-0.376,0.104-0.634,0.104c-0.95,0-1.507-0.514-1.507-1.386c0-0.805,0.582-1.301,1.523-1.301h1.053v-0.223
			c0-0.496-0.246-0.701-0.847-0.701c-0.394,0-0.573,0.076-0.839,0.368l-0.711-0.694c0.257-0.257,0.377-0.352,0.6-0.454
			c0.256-0.11,0.564-0.162,0.985-0.162c1.282,0,1.925,0.531,1.925,1.574v2.937L216.568,59.229L216.568,59.229z M215.662,57.346
			c-0.395,0-0.625,0.18-0.625,0.506c0,0.342,0.23,0.513,0.701,0.513c0.574,0,0.804-0.222,0.804-0.779v-0.239H215.662z"/>
	</g>
	<g>
		<defs>
			<rect id="SVGID_85_" x="-82.066" y="-239.372" width="454.787" height="588.547"/>
		</defs>
		<clipPath id="SVGID_86_">
			<use xlink:href="#SVGID_85_"  overflow="visible"/>
		</clipPath>
		<path clip-path="url(#SVGID_86_)" fill="#4C493D" d="M221.465,59.119c-0.248,0.11-0.521,0.162-0.828,0.162
			c-1.277,0-2.004-0.84-2.004-2.32c0-1.403,0.745-2.242,2.004-2.242c0.307,0,0.59,0.052,0.828,0.154
			c0.24,0.102,0.368,0.188,0.635,0.445l-0.754,0.754c-0.256-0.267-0.438-0.353-0.719-0.353c-0.582,0-0.882,0.437-0.882,1.276
			c0,0.855,0.299,1.283,0.882,1.283c0.291,0,0.453-0.085,0.719-0.35l0.754,0.744C221.833,58.931,221.705,59.016,221.465,59.119"/>
	</g>
	<g>
		<defs>
			<rect id="SVGID_87_" x="-82.066" y="-239.372" width="454.787" height="588.547"/>
		</defs>
		<clipPath id="SVGID_88_">
			<use xlink:href="#SVGID_87_"  overflow="visible"/>
		</clipPath>
		<path clip-path="url(#SVGID_88_)" fill="#4C493D" d="M225.42,59.119c-0.248,0.11-0.521,0.162-0.83,0.162
			c-1.275,0-2.002-0.84-2.002-2.32c0-1.403,0.744-2.242,2.002-2.242c0.309,0,0.592,0.052,0.83,0.154
			c0.24,0.102,0.368,0.188,0.635,0.445l-0.754,0.754c-0.258-0.267-0.438-0.353-0.721-0.353c-0.582,0-0.881,0.437-0.881,1.276
			c0,0.855,0.299,1.283,0.881,1.283c0.293,0,0.455-0.085,0.721-0.35l0.754,0.744C225.788,58.931,225.66,59.016,225.42,59.119"/>
	</g>
	<g>
		<defs>
			<rect id="SVGID_89_" x="-82.066" y="-239.372" width="454.787" height="588.547"/>
		</defs>
		<clipPath id="SVGID_90_">
			<use xlink:href="#SVGID_89_"  overflow="visible"/>
		</clipPath>
		<path clip-path="url(#SVGID_90_)" fill="#4C493D" d="M229.846,58.732c-0.342,0.359-0.821,0.547-1.387,0.547
			c-0.564,0-1.037-0.188-1.378-0.547c-0.377-0.393-0.505-0.848-0.505-1.738c0-0.881,0.138-1.334,0.505-1.728
			c0.342-0.36,0.814-0.548,1.378-0.548c0.564,0,1.045,0.188,1.387,0.548c0.368,0.385,0.505,0.847,0.505,1.712
			C230.351,57.885,230.223,58.34,229.846,58.732 M228.459,55.719c-0.762,0-0.77,0.77-0.77,1.346c0,0.854,0.231,1.215,0.77,1.215
			c0.745,0,0.779-0.701,0.779-1.285C229.238,56.422,229.195,55.719,228.459,55.719"/>
	</g>
	<g>
		<defs>
			<rect id="SVGID_91_" x="-82.066" y="-239.372" width="454.787" height="588.547"/>
		</defs>
		<clipPath id="SVGID_92_">
			<use xlink:href="#SVGID_91_"  overflow="visible"/>
		</clipPath>
		<path clip-path="url(#SVGID_92_)" fill="#4C493D" d="M233.68,59.229h-2.275V54.77h2.201c0.838,0,1.377,0.479,1.377,1.224
			c0,0.42-0.179,0.72-0.565,0.942c0.427,0.223,0.634,0.53,0.634,1.01C235.049,58.732,234.52,59.229,233.68,59.229 M232.508,55.592
			v0.948h0.831c0.351,0,0.538-0.17,0.538-0.479c0-0.3-0.188-0.47-0.538-0.47H232.508L232.508,55.592z M233.391,57.371h-0.883v1.037
			h0.883c0.352,0,0.557-0.205,0.557-0.521C233.947,57.56,233.74,57.371,233.391,57.371"/>
	</g>
	<g>
		<defs>
			<rect id="SVGID_93_" x="-82.066" y="-239.372" width="454.787" height="588.547"/>
		</defs>
		<clipPath id="SVGID_94_">
			<use xlink:href="#SVGID_93_"  overflow="visible"/>
		</clipPath>
		<polygon clip-path="url(#SVGID_94_)" fill="#4C493D" points="240.803,59.229 239.682,57.416 239.219,57.945 239.219,59.229 
			238.106,59.229 238.106,54.77 239.219,54.77 239.219,56.644 240.726,54.77 242.078,54.77 240.442,56.609 242.155,59.229 		"/>
	</g>
	<g>
		<defs>
			<rect id="SVGID_95_" x="-82.066" y="-239.372" width="454.787" height="588.547"/>
		</defs>
		<clipPath id="SVGID_96_">
			<use xlink:href="#SVGID_95_"  overflow="visible"/>
		</clipPath>
		<polygon clip-path="url(#SVGID_96_)" fill="#4C493D" points="244.953,59.229 244.953,53.135 248.97,53.135 248.97,54.196 
			246.145,54.196 246.145,55.625 248.55,55.625 248.55,56.688 246.145,56.688 246.145,58.168 248.97,58.168 248.97,59.229 		"/>
	</g>
	<g>
		<defs>
			<rect id="SVGID_97_" x="-82.066" y="-239.372" width="454.787" height="588.547"/>
		</defs>
		<clipPath id="SVGID_98_">
			<use xlink:href="#SVGID_97_"  overflow="visible"/>
		</clipPath>
		<polygon clip-path="url(#SVGID_98_)" fill="#4C493D" points="251.35,54.196 251.35,59.229 250.158,59.229 250.158,53.135 
			253.993,53.135 253.993,54.196 		"/>
	</g>
	<g>
		<defs>
			<rect id="SVGID_99_" x="-82.066" y="-239.372" width="454.787" height="588.547"/>
		</defs>
		<clipPath id="SVGID_100_">
			<use xlink:href="#SVGID_99_"  overflow="visible"/>
		</clipPath>
		<path clip-path="url(#SVGID_100_)" fill="#4C493D" d="M258.521,55.882c0,0,0.018,0.489,0,0.54c0,0.693,0.008,1.574-0.599,2.191
			c-0.231,0.238-0.515,0.42-0.83,0.531c-0.249,0.094-0.53,0.137-0.831,0.137c-0.719,0-1.155-0.215-1.678-0.702l0.746-0.761
			c0.197,0.197,0.666,0.401,0.941,0.401c0.316,0,0.572-0.11,0.76-0.317c0.25-0.273,0.283-0.691,0.301-1.215h-1.772v-1.035h1.763
			c-0.017-0.574-0.086-0.771-0.17-0.968c-0.138-0.333-0.488-0.54-0.882-0.54c-0.376,0-0.608,0.111-0.926,0.421l-0.743-0.797
			c0.504-0.471,0.967-0.685,1.669-0.685C258.018,53.084,258.521,54.375,258.521,55.882"/>
	</g>
	<g>
		<defs>
			<rect id="SVGID_101_" x="-82.066" y="-239.372" width="454.787" height="588.547"/>
		</defs>
		<clipPath id="SVGID_102_">
			<use xlink:href="#SVGID_101_"  overflow="visible"/>
		</clipPath>
		<polygon clip-path="url(#SVGID_102_)" fill="#4C493D" points="264.325,59.229 264.325,56.508 262.758,59.229 261.638,59.229 
			261.638,54.77 262.758,54.77 262.758,57.423 264.325,54.77 265.447,54.77 265.447,59.229 		"/>
	</g>
	<g>
		<defs>
			<rect id="SVGID_103_" x="-82.066" y="-239.372" width="454.787" height="588.547"/>
		</defs>
		<clipPath id="SVGID_104_">
			<use xlink:href="#SVGID_103_"  overflow="visible"/>
		</clipPath>
		<path clip-path="url(#SVGID_104_)" fill="#4C493D" d="M272.448,58.613c-0.427,0.444-0.984,0.666-1.644,0.666
			c-0.658,0-1.223-0.229-1.651-0.666c-0.643-0.659-0.601-1.669-0.601-2.346v-0.333c0-1.216,0.129-1.703,0.601-2.184
			c0.427-0.437,0.993-0.667,1.651-0.667c0.65,0,1.217,0.23,1.644,0.667c0.429,0.437,0.606,1.019,0.606,2.004v0.427
			C273.057,57.055,273.099,57.938,272.448,58.613 M271.566,54.47c-0.188-0.214-0.453-0.325-0.762-0.325
			c-0.308,0-0.581,0.111-0.77,0.325c-0.273,0.3-0.291,0.874-0.291,1.627c0,0.744-0.035,1.47,0.291,1.798
			c0.205,0.204,0.462,0.324,0.77,0.324c0.309,0,0.574-0.111,0.762-0.324c0.25-0.283,0.3-0.582,0.3-1.823
			C271.866,55.068,271.807,54.735,271.566,54.47"/>
	</g>
	<g>
		<defs>
			<rect id="SVGID_105_" x="-82.066" y="-239.372" width="454.787" height="588.547"/>
		</defs>
		<clipPath id="SVGID_106_">
			<use xlink:href="#SVGID_105_"  overflow="visible"/>
		</clipPath>
		<polygon clip-path="url(#SVGID_106_)" fill="#4C493D" points="275.488,54.196 275.488,59.229 274.299,59.229 274.299,53.135 
			278.133,53.135 278.133,54.196 		"/>
	</g>
	<g>
		<defs>
			<rect id="SVGID_107_" x="-82.066" y="-239.372" width="454.787" height="588.547"/>
		</defs>
		<clipPath id="SVGID_108_">
			<use xlink:href="#SVGID_107_"  overflow="visible"/>
		</clipPath>
		<path clip-path="url(#SVGID_108_)" fill="#4C493D" d="M282.661,55.882c0,0,0.018,0.489,0,0.54c0,0.693,0.008,1.574-0.599,2.191
			c-0.232,0.238-0.515,0.42-0.83,0.531c-0.25,0.094-0.531,0.137-0.83,0.137c-0.721,0-1.156-0.215-1.679-0.702l0.745-0.761
			c0.195,0.197,0.668,0.401,0.941,0.401c0.317,0,0.574-0.11,0.761-0.317c0.249-0.273,0.284-0.691,0.3-1.215h-1.772v-1.035h1.765
			c-0.018-0.574-0.086-0.771-0.172-0.968c-0.137-0.333-0.487-0.54-0.881-0.54c-0.377,0-0.607,0.111-0.926,0.421l-0.744-0.797
			c0.506-0.471,0.967-0.685,1.67-0.685C282.156,53.084,282.661,54.375,282.661,55.882"/>
	</g>
</g>
</svg>
