<?xml version="1.0" encoding="utf-8"?>
<!-- Generator: Adobe Illustrator 16.0.0, SVG Export Plug-In . SVG Version: 6.00 Build 0)  -->
<!DOCTYPE svg PUBLIC "-//W3C//DTD SVG 1.1//EN" "http://www.w3.org/Graphics/SVG/1.1/DTD/svg11.dtd">
<svg version="1.1" id="Layer_1" xmlns="http://www.w3.org/2000/svg" xmlns:xlink="http://www.w3.org/1999/xlink" x="0px" y="0px"
	 width="68.255px" height="55px" viewBox="14.015 0 68.255 55" enable-background="new 14.015 0 68.255 55" xml:space="preserve">
<g>
	<path fill="#4B3E28" d="M35.938,41.615v11.926C39.384,54.455,43.682,55,48.345,55c11.328,0,20.513-3.203,20.513-7.152V37.383
		c0.002-0.791,0.006-1.584,0.01-2.375L48.143,45.066L35.938,41.615z"/>
	<path fill="#31271A" d="M68.459,34.637l-20.317,7.396l-15.724-5.725l-4.584-1.669c0,1.22,0,2.159-0.001,2.207v11.002
		c0,2.324,3.181,4.388,8.105,5.693V41.615l12.204,3.45l20.725-10.058c0.001-0.174,0.001-0.348,0.002-0.521L68.459,34.637z"/>
	<polygon fill="#4B3E28" points="48.143,39.991 14.015,27.567 14.015,29.608 27.833,34.64 48.143,42.033 68.87,34.487 82.27,29.608 
		82.27,27.567 	"/>
	<path fill="#68573C" d="M71.938,23.621l-0.009-0.001c-0.82-0.281-6.93-2.536-6.93-2.536s-0.777,0.497-2.396,1.301l-1.115-2.569
		l-13.346-4.857L14.015,27.381v0.186l13.819,5.031l20.309,7.393l20.736-7.548l13.392-4.875v-0.186L71.938,23.621z"/>
	<path fill="#4B3E28" d="M48.143,27.525c0,0-0.38,0.758-1.129-1.493c-1.966-5.901-3.87-16.312-12.986-23.59l1.871-1.983
		C35.898,0.459,45.869,7.056,48.143,27.525"/>
	<path fill="#6CB41F" d="M69.236,0c-7.1,11.001-17.256,12.068-21.075,27.906c-0.199-0.007-0.31-0.014-0.31-0.014
		s10.99,0.702,16.406-4.857c0.307-0.315,0.597-0.651,0.864-1.009C70.12,15.375,69.236,0,69.236,0"/>
	<path fill="#8CCA24" d="M51.449,6.998c-1.093,0.816-2.043,1.707-2.771,2.674c-4.997,6.651-0.827,18.221-0.827,18.221
		s0.111,0.007,0.31,0.014C51.981,12.068,62.136,11.001,69.236,0C68.826,0.085,57.873,2.206,51.449,6.998"/>
	<path fill="#2D2318" d="M107.533,17.691c0.183,0.456,0.304,0.941,0.304,1.458c0,0.578-0.092,1.155-0.304,1.672h-8.662v6.077h7.143
		c0.182,0.486,0.304,1.003,0.304,1.52c0,0.547-0.091,1.095-0.304,1.611h-7.143v6.412h8.966c0.182,0.486,0.304,1.004,0.304,1.52
		c0,0.547-0.091,1.094-0.304,1.611H94.981V17.691H107.533z"/>
	<path fill="#2D2318" d="M123.595,17.691c0,0,0.304,0.578,0.304,1.641c0,0.942-0.304,1.702-0.304,1.702h-8.266v18.266
		c0,0-0.669,0.273-1.976,0.273c-1.276,0-1.915-0.273-1.915-0.273V17.691H123.595z"/>
	<path fill="#2D2318" d="M131.66,17.387c6.169,0,9.512,3.921,9.512,11.244c0,7.324-3.343,11.244-9.512,11.244
		c-3.677,0-5.865-1.062-5.865-1.062c0-1.125,0.425-2.31,1.155-2.918c0,0,1.944,0.639,4.285,0.639c3.099,0,5.47-1.338,5.805-6.504
		h-7.416c0,0-0.304-0.639-0.304-1.611c0-0.972,0.304-1.52,0.304-1.52h7.384c-0.425-4.831-2.734-6.229-5.773-6.229
		c-2.098,0-3.981,0.637-3.981,0.637c-0.821-0.729-1.155-1.884-1.155-2.856C126.099,18.45,128.134,17.387,131.66,17.387"/>
	<path fill="#2D2318" d="M144.879,32.156c0,0-0.213-0.547-0.213-1.398c0-0.851,0.213-1.396,0.213-1.396h6.686
		c0,0,0.214,0.546,0.214,1.396c0,0.852-0.214,1.398-0.214,1.398H144.879z"/>
	<path fill="#2D2318" d="M159.83,39.299c0,0-0.637,0.273-1.914,0.273c-1.429,0-1.977-0.273-1.977-0.273V17.691h8.146
		c4.103,0,6.776,2.765,6.776,6.837s-2.674,6.838-6.776,6.838h-4.255V39.299L159.83,39.299z M163.538,28.145
		c2.126,0,3.251-1.336,3.251-3.616c0-2.279-1.124-3.616-3.251-3.616h-3.708v7.232H163.538z"/>
	<path fill="#2D2318" d="M175.85,32.765c0.273,3.101,1.641,3.89,3.768,3.89c2.036,0,3.555-0.729,3.555-0.729
		c0.639,0.607,1.005,1.67,1.066,2.704c0,0-1.795,1.245-5.168,1.245c-4.953,0-7.141-2.887-7.141-8.387
		c0-5.744,2.734-8.206,6.928-8.206c3.769,0,6.23,1.945,6.23,6.292c0,1.943-0.334,3.19-0.334,3.19H175.85z M178.857,26.261
		c-1.55,0-2.705,1.033-2.978,3.859h5.349c0.031-0.333,0.061-0.669,0.061-1.003C181.289,27.537,180.772,26.261,178.857,26.261"/>
	<path fill="#2D2318" d="M192.038,39.329c0,0-0.789,0.243-1.944,0.243c-1.154,0-1.883-0.243-1.883-0.243V23.586h12.702v15.743
		c0,0-0.759,0.243-1.945,0.243c-1.063,0-1.884-0.243-1.884-0.243V26.748h-5.046V39.329L192.038,39.329z"/>
	<path fill="#2D2318" d="M208.107,32.765c0.273,3.101,1.641,3.89,3.768,3.89c2.035,0,3.557-0.729,3.557-0.729
		c0.638,0.607,1.004,1.67,1.063,2.704c0,0-1.794,1.245-5.167,1.245c-4.953,0-7.141-2.887-7.141-8.387
		c0-5.744,2.735-8.206,6.929-8.206c3.768,0,6.229,1.945,6.229,6.292c0,1.943-0.334,3.19-0.334,3.19H208.107z M211.116,26.261
		c-1.551,0-2.706,1.033-2.978,3.859h5.348c0.031-0.333,0.062-0.669,0.062-1.003C213.547,27.537,213.031,26.261,211.116,26.261"/>
	<path fill="#2D2318" d="M231.908,23.586c0,0,0.305,0.638,0.305,1.611c0,0.942-0.305,1.58-0.305,1.58h-4.346v12.552
		c0,0-0.669,0.243-1.914,0.243c-1.338,0-1.914-0.243-1.914-0.243V26.778h-4.347c0,0-0.335-0.638-0.335-1.58
		c0-0.973,0.335-1.611,0.335-1.611L231.908,23.586L231.908,23.586z"/>
	<path fill="#2D2318" d="M246.624,23.586c1.124,0,1.914,0.243,1.914,0.243v15.5c0,0-0.729,0.243-1.853,0.243
		c-1.186,0-1.977-0.243-1.977-0.243v-3.86c0-3.98,0.091-6.563,0.184-6.655h-0.092c0.213,0.062-1.549,3.131-2.948,5.501l-3.008,5.015
		c0,0-0.731,0.243-1.944,0.243c-1.156,0-1.886-0.243-1.886-0.243v-15.5c0,0,0.729-0.243,1.855-0.243
		c1.245,0,1.975,0.243,1.975,0.243v3.891c0,3.009-0.091,6.624-0.183,6.655h0.092c0,0,0.639-1.61,1.458-3.009l4.497-7.537
		C244.709,23.829,245.438,23.586,246.624,23.586"/>
	<path fill="#2D2318" d="M263.854,23.586c0,0,0.305,0.638,0.305,1.611c0,0.942-0.305,1.58-0.305,1.58h-4.346v12.552
		c0,0-0.668,0.243-1.914,0.243c-1.338,0-1.914-0.243-1.914-0.243V26.778h-4.347c0,0-0.335-0.638-0.335-1.58
		c0-0.973,0.335-1.611,0.335-1.611L263.854,23.586L263.854,23.586z"/>
	<path fill="#2D2318" d="M272.758,23.283c4.314,0,6.99,2.279,6.99,8.295c0,6.018-2.705,8.297-6.99,8.297s-6.99-2.279-6.99-8.297
		C265.767,25.562,268.473,23.283,272.758,23.283 M272.758,26.2c-1.854,0-3.07,1.063-3.07,5.378c0,4.316,1.217,5.379,3.07,5.379
		c1.853,0,3.038-1.062,3.038-5.379C275.795,27.264,274.61,26.2,272.758,26.2"/>
	<path fill="#2D2318" d="M290.362,23.283c3.403,0,5.623,2.097,5.623,8.296c0,6.2-2.22,8.296-5.623,8.296
		c-1.944,0-3.253-0.546-4.103-1.58v6.289c0,0-0.667,0.244-1.943,0.244c-1.277,0-1.886-0.244-1.886-0.244V23.83
		c0,0,0.608-0.243,1.886-0.243s1.943,0.243,1.943,0.243v1.033C287.109,23.83,288.418,23.283,290.362,23.283 M288.994,26.383
		c-1.7,0-2.734,1.367-2.734,3.282v3.829c0,1.915,1.034,3.283,2.734,3.283c1.916,0,3.04-0.912,3.04-5.198
		C292.034,27.294,290.91,26.383,288.994,26.383"/>
	<polygon fill="#2D2318" points="97.517,51.739 97.517,48.474 96.174,48.474 96.174,51.739 95.121,51.739 95.121,47.549 
		98.572,47.549 98.572,51.739 	"/>
	<path fill="#2D2318" d="M102.634,51.272c-0.321,0.339-0.772,0.515-1.303,0.515c-0.531,0-0.973-0.176-1.295-0.515
		c-0.354-0.37-0.475-0.796-0.475-1.633c0-0.829,0.129-1.255,0.475-1.625c0.322-0.339,0.764-0.515,1.295-0.515
		c0.531,0,0.982,0.176,1.303,0.515c0.346,0.362,0.475,0.796,0.475,1.608C103.108,50.477,102.988,50.903,102.634,51.272
		 M101.331,48.44c-0.716,0-0.724,0.724-0.724,1.263c0,0.805,0.217,1.143,0.724,1.143c0.701,0,0.732-0.66,0.732-1.206
		C102.063,49.101,102.023,48.44,101.331,48.44"/>
	<path fill="#2D2318" d="M107.003,52.768v-1.029h-2.438v1.029h-0.989v-1.953h0.45c0.273-0.748,0.427-1.376,0.427-2.872v-0.394h3.009
		v3.266h0.531v1.953H107.003z M106.416,48.473h-0.933c0,0.129,0,0.484-0.009,0.589c-0.032,0.779-0.185,1.262-0.361,1.753h1.303
		V48.473z"/>
	<polygon fill="#2D2318" points="109.834,48.473 109.834,51.738 108.788,51.738 108.788,47.549 111.563,47.549 111.563,48.473 	"/>
	<path fill="#2D2318" d="M115.007,51.272c-0.321,0.339-0.772,0.515-1.303,0.515c-0.531,0-0.974-0.176-1.295-0.515
		c-0.354-0.37-0.475-0.796-0.475-1.633c0-0.829,0.129-1.255,0.475-1.625c0.321-0.339,0.764-0.515,1.295-0.515
		c0.531,0,0.982,0.176,1.303,0.515c0.346,0.362,0.475,0.796,0.475,1.608C115.482,50.477,115.362,50.903,115.007,51.272
		 M113.704,48.44c-0.716,0-0.725,0.724-0.725,1.263c0,0.805,0.218,1.143,0.725,1.143c0.7,0,0.732-0.66,0.732-1.206
		C114.437,49.101,114.396,48.44,113.704,48.44"/>
	<polygon fill="#2D2318" points="118.17,48.473 118.17,51.738 117.116,51.738 117.116,48.473 115.884,48.473 115.884,47.549 
		119.377,47.549 119.377,48.473 	"/>
	<path fill="#2D2318" d="M122.852,51.272c-0.321,0.339-0.772,0.515-1.303,0.515c-0.531,0-0.973-0.176-1.295-0.515
		c-0.354-0.37-0.474-0.796-0.474-1.633c0-0.829,0.129-1.255,0.474-1.625c0.322-0.339,0.765-0.515,1.295-0.515
		c0.531,0,0.982,0.176,1.303,0.515c0.346,0.362,0.475,0.796,0.475,1.608C123.326,50.477,123.206,50.903,122.852,51.272
		 M121.548,48.44c-0.716,0-0.724,0.724-0.724,1.263c0,0.805,0.217,1.143,0.724,1.143c0.7,0,0.732-0.66,0.732-1.206
		C122.28,49.101,122.241,48.44,121.548,48.44"/>
	<path fill="#2D2318" d="M126.457,51.739h-2.14v-4.19h2.067c0.789,0,1.295,0.449,1.295,1.149c0,0.394-0.168,0.675-0.53,0.886
		c0.402,0.209,0.595,0.498,0.595,0.949C127.744,51.273,127.245,51.739,126.457,51.739 M125.354,48.32v0.893h0.78
		c0.33,0,0.507-0.16,0.507-0.449c0-0.282-0.177-0.443-0.507-0.443H125.354z M126.183,49.994h-0.829v0.973h0.829
		c0.33,0,0.522-0.191,0.522-0.49C126.706,50.17,126.513,49.994,126.183,49.994"/>
	<polygon fill="#2D2318" points="131.283,51.739 130.229,50.033 129.795,50.533 129.795,51.739 128.749,51.739 128.749,47.549 
		129.795,47.549 129.795,49.311 131.211,47.549 132.482,47.549 130.945,49.277 132.554,51.739 	"/>
	<path fill="#2D2318" d="M135.386,51.739v-0.36c-0.185,0.176-0.273,0.24-0.435,0.305c-0.161,0.064-0.354,0.096-0.595,0.096
		c-0.893,0-1.416-0.482-1.416-1.303c0-0.757,0.546-1.223,1.432-1.223h0.989v-0.209c0-0.467-0.233-0.659-0.796-0.659
		c-0.37,0-0.539,0.072-0.789,0.346l-0.668-0.651c0.241-0.242,0.354-0.33,0.563-0.427c0.242-0.104,0.531-0.153,0.926-0.153
		c1.207,0,1.81,0.498,1.81,1.48v2.759H135.386z M134.533,49.97c-0.37,0-0.587,0.169-0.587,0.475c0,0.321,0.217,0.481,0.659,0.481
		c0.54,0,0.757-0.208,0.757-0.732V49.97H134.533z"/>
	<polygon fill="#2D2318" points="139.392,51.739 139.392,47.549 140.447,47.549 140.447,50.814 141.596,50.814 141.596,47.549 
		142.643,47.549 142.643,50.814 143.793,50.814 143.793,47.549 144.838,47.549 144.838,51.739 	"/>
	<polygon fill="#2D2318" points="148.549,51.739 147.494,50.033 147.059,50.533 147.059,51.739 146.014,51.739 146.014,47.549 
		147.059,47.549 147.059,49.311 148.476,47.549 149.747,47.549 148.21,49.277 149.819,51.739 	"/>
	<path fill="#2D2318" d="M153.254,51.272c-0.321,0.339-0.772,0.515-1.303,0.515s-0.974-0.176-1.295-0.515
		c-0.353-0.37-0.475-0.796-0.475-1.633c0-0.829,0.129-1.255,0.475-1.625c0.321-0.339,0.764-0.515,1.295-0.515
		c0.53,0,0.982,0.176,1.303,0.515c0.347,0.362,0.475,0.796,0.475,1.608C153.729,50.477,153.609,50.903,153.254,51.272
		 M151.951,48.44c-0.716,0-0.724,0.724-0.724,1.263c0,0.805,0.217,1.143,0.724,1.143c0.701,0,0.732-0.66,0.732-1.206
		C152.684,49.101,152.644,48.44,151.951,48.44"/>
	<path fill="#2D2318" d="M157.053,51.739v-3.266h-0.982l-0.049,1.633c-0.031,1.11-0.522,1.633-1.318,1.633h-0.556v-0.925h0.153
		c0.322,0,0.667-0.185,0.684-0.9l0.064-2.365h3.048v4.19H157.053z"/>
	<path fill="#2D2318" d="M161.283,51.738h-2.02v-4.189h1.055v1.513h0.965c0.828,0,1.393,0.546,1.393,1.335
		C162.676,51.184,162.104,51.738,161.283,51.738 M160.286,49.881v1.038h0.805c0.339,0,0.548-0.2,0.548-0.522
		c0-0.314-0.209-0.516-0.548-0.516H160.286z"/>
	<polygon fill="#2D2318" points="165.918,51.739 165.918,50.059 164.574,50.059 164.574,51.739 163.52,51.739 163.52,47.549 
		164.574,47.549 164.574,49.134 165.918,49.134 165.918,47.549 166.972,47.549 166.972,51.739 	"/>
	<polygon fill="#2D2318" points="170.656,51.739 170.656,49.182 169.184,51.739 168.131,51.739 168.131,47.549 169.184,47.549 
		169.184,50.042 170.656,47.549 171.711,47.549 171.711,51.739 	"/>
	<polygon fill="#2D2318" points="175.411,51.739 174.357,50.033 173.923,50.533 173.923,51.739 172.877,51.739 172.877,47.549 
		173.923,47.549 173.923,49.311 175.338,47.549 176.609,47.549 175.072,49.277 176.682,51.739 	"/>
	<path fill="#2D2318" d="M180.118,51.272c-0.321,0.339-0.772,0.515-1.304,0.515c-0.529,0-0.973-0.176-1.295-0.515
		c-0.354-0.37-0.475-0.796-0.475-1.633c0-0.829,0.128-1.255,0.475-1.625c0.322-0.339,0.765-0.515,1.295-0.515
		c0.531,0,0.982,0.176,1.304,0.515c0.346,0.362,0.475,0.796,0.475,1.608C180.592,50.477,180.472,50.903,180.118,51.272
		 M178.814,48.44c-0.717,0-0.725,0.724-0.725,1.263c0,0.805,0.219,1.143,0.725,1.143c0.7,0,0.732-0.66,0.732-1.206
		C179.547,49.101,179.506,48.44,178.814,48.44"/>
	<path fill="#2D2318" d="M183.722,51.739h-2.14v-4.19h2.068c0.787,0,1.295,0.449,1.295,1.149c0,0.394-0.168,0.675-0.531,0.886
		c0.402,0.209,0.596,0.498,0.596,0.949C185.009,51.273,184.51,51.739,183.722,51.739 M182.619,48.32v0.893h0.781
		c0.33,0,0.506-0.16,0.506-0.449c0-0.282-0.176-0.443-0.506-0.443H182.619z M183.447,49.994h-0.828v0.973h0.828
		c0.33,0,0.524-0.191,0.524-0.49C183.972,50.17,183.777,49.994,183.447,49.994"/>
	<path fill="#2D2318" d="M191.027,49.182c0.191,0.257,0.289,0.555,0.289,0.908c0,1.015-0.74,1.697-1.834,1.697
		c-1.095,0-1.835-0.683-1.835-1.697c0-0.362,0.097-0.66,0.298-0.917c0.111-0.146,0.192-0.226,0.418-0.386
		c-0.273-0.201-0.362-0.306-0.482-0.539c-0.105-0.201-0.161-0.418-0.161-0.66c0-0.941,0.739-1.624,1.762-1.624
		c1.013,0,1.754,0.683,1.754,1.617c0,0.249-0.056,0.466-0.161,0.667c-0.12,0.225-0.209,0.338-0.482,0.539
		C190.826,48.957,190.914,49.027,191.027,49.182 M189.482,49.262c-0.443,0-0.789,0.354-0.789,0.797c0,0.442,0.346,0.788,0.789,0.788
		c0.434,0,0.787-0.346,0.787-0.772C190.271,49.615,189.925,49.262,189.482,49.262 M189.482,46.904c-0.41,0-0.717,0.313-0.717,0.725
		c0,0.418,0.307,0.725,0.717,0.725c0.401,0,0.707-0.307,0.707-0.709C190.19,47.218,189.893,46.904,189.482,46.904"/>
	<rect x="192.485" y="48.956" fill="#2D2318" width="2.478" height="0.973"/>
	<polygon fill="#2D2318" points="197.085,51.739 197.085,47.137 195.918,48.151 195.918,47.025 197.085,46.012 198.131,46.012 
		198.131,51.739 	"/>
	<polygon fill="#2D2318" points="201.453,51.739 201.453,47.137 200.287,48.151 200.287,47.025 201.453,46.012 202.499,46.012 
		202.499,51.739 	"/>
	<polygon fill="#2D2318" points="208.814,51.739 207.762,50.033 207.326,50.533 207.326,51.739 206.28,51.739 206.28,47.549 
		207.326,47.549 207.326,49.311 208.742,47.549 210.014,47.549 208.477,49.277 210.086,51.739 	"/>
	<path fill="#2D2318" d="M213.191,51.739v-3.266h-0.982l-0.048,1.633c-0.031,1.11-0.522,1.633-1.319,1.633h-0.555v-0.925h0.152
		c0.322,0,0.668-0.185,0.684-0.9l0.064-2.365h3.049v4.19H213.191z"/>
	<path fill="#2D2318" d="M217.56,51.739v-0.36c-0.185,0.176-0.272,0.24-0.435,0.305c-0.16,0.064-0.354,0.096-0.596,0.096
		c-0.893,0-1.416-0.482-1.416-1.303c0-0.757,0.548-1.223,1.432-1.223h0.99v-0.209c0-0.467-0.232-0.659-0.795-0.659
		c-0.371,0-0.539,0.072-0.79,0.346l-0.667-0.651c0.241-0.242,0.354-0.33,0.563-0.427c0.241-0.104,0.53-0.153,0.925-0.153
		c1.206,0,1.811,0.498,1.811,1.48v2.759H217.56z M216.707,49.97c-0.371,0-0.586,0.169-0.586,0.475c0,0.321,0.216,0.481,0.658,0.481
		c0.539,0,0.757-0.208,0.757-0.732V49.97H216.707z"/>
	<path fill="#2D2318" d="M222.162,51.635c-0.234,0.104-0.491,0.152-0.781,0.152c-1.198,0-1.883-0.788-1.883-2.18
		c0-1.319,0.7-2.107,1.883-2.107c0.29,0,0.555,0.049,0.781,0.145c0.225,0.096,0.345,0.178,0.596,0.418l-0.709,0.709
		c-0.24-0.251-0.41-0.331-0.676-0.331c-0.547,0-0.828,0.411-0.828,1.199c0,0.805,0.281,1.206,0.828,1.206
		c0.273,0,0.427-0.08,0.676-0.329l0.709,0.7C222.507,51.459,222.387,51.538,222.162,51.635"/>
	<path fill="#2D2318" d="M225.878,51.635c-0.233,0.104-0.49,0.152-0.78,0.152c-1.198,0-1.881-0.788-1.881-2.18
		c0-1.319,0.698-2.107,1.881-2.107c0.29,0,0.556,0.049,0.78,0.145c0.226,0.096,0.347,0.178,0.597,0.418l-0.708,0.709
		c-0.241-0.251-0.411-0.331-0.677-0.331c-0.547,0-0.828,0.411-0.828,1.199c0,0.805,0.281,1.206,0.828,1.206
		c0.273,0,0.428-0.08,0.677-0.329l0.708,0.7C226.225,51.459,226.104,51.538,225.878,51.635"/>
	<path fill="#2D2318" d="M230.037,51.272c-0.32,0.339-0.771,0.515-1.302,0.515s-0.974-0.176-1.296-0.515
		c-0.354-0.37-0.475-0.796-0.475-1.633c0-0.829,0.129-1.255,0.475-1.625c0.322-0.339,0.765-0.515,1.296-0.515
		s0.981,0.176,1.302,0.515c0.347,0.362,0.476,0.796,0.476,1.608C230.513,50.477,230.392,50.903,230.037,51.272 M228.735,48.44
		c-0.717,0-0.725,0.724-0.725,1.263c0,0.805,0.218,1.143,0.725,1.143c0.7,0,0.731-0.66,0.731-1.206
		C229.466,49.101,229.427,48.44,228.735,48.44"/>
	<path fill="#2D2318" d="M233.643,51.739h-2.141v-4.19h2.069c0.787,0,1.294,0.449,1.294,1.149c0,0.394-0.168,0.675-0.53,0.886
		c0.401,0.209,0.595,0.498,0.595,0.949C234.93,51.273,234.431,51.739,233.643,51.739 M232.54,48.32v0.893h0.782
		c0.328,0,0.506-0.16,0.506-0.449c0-0.282-0.178-0.443-0.506-0.443H232.54z M233.369,49.994h-0.829v0.973h0.829
		c0.331,0,0.523-0.191,0.523-0.49C233.893,50.17,233.7,49.994,233.369,49.994"/>
	<polygon fill="#2D2318" points="240.336,51.739 239.282,50.033 238.847,50.533 238.847,51.739 237.802,51.739 237.802,47.549 
		238.847,47.549 238.847,49.311 240.264,47.549 241.535,47.549 239.997,49.277 241.607,51.739 	"/>
	<polygon fill="#2D2318" points="244.238,51.739 244.238,46.012 248.012,46.012 248.012,47.01 245.355,47.01 245.355,48.353 
		247.617,48.353 247.617,49.351 245.355,49.351 245.355,50.741 248.012,50.741 248.012,51.739 	"/>
	<polygon fill="#2D2318" points="250.248,47.01 250.248,51.739 249.13,51.739 249.13,46.012 252.732,46.012 252.732,47.01 	"/>
	<path fill="#2D2318" d="M256.99,48.594c0,0,0.016,0.459,0,0.507c0,0.651,0.008,1.48-0.564,2.06c-0.217,0.225-0.482,0.395-0.78,0.5
		c-0.233,0.088-0.499,0.128-0.78,0.128c-0.676,0-1.086-0.202-1.577-0.659l0.7-0.717c0.186,0.186,0.628,0.377,0.885,0.377
		c0.298,0,0.539-0.104,0.716-0.296c0.233-0.259,0.265-0.651,0.282-1.144h-1.665v-0.973h1.657c-0.017-0.539-0.08-0.724-0.161-0.909
		c-0.129-0.313-0.458-0.507-0.829-0.507c-0.354,0-0.571,0.105-0.868,0.395l-0.7-0.749c0.475-0.442,0.909-0.643,1.568-0.643
		C256.514,45.964,256.99,47.178,256.99,48.594"/>
	<polygon fill="#2D2318" points="262.443,51.739 262.443,49.182 260.972,51.739 259.918,51.739 259.918,47.549 260.972,47.549 
		260.972,50.042 262.443,47.549 263.498,47.549 263.498,51.739 	"/>
	<path fill="#2D2318" d="M270.08,51.16c-0.402,0.418-0.926,0.627-1.546,0.627s-1.15-0.217-1.554-0.627
		c-0.604-0.619-0.562-1.568-0.562-2.203v-0.314c0-1.143,0.121-1.602,0.562-2.051c0.402-0.411,0.934-0.628,1.554-0.628
		c0.61,0,1.144,0.217,1.546,0.628c0.4,0.41,0.57,0.957,0.57,1.881v0.403C270.65,49.696,270.689,50.525,270.08,51.16 M269.25,47.266
		c-0.176-0.199-0.426-0.305-0.716-0.305s-0.548,0.105-0.725,0.305c-0.257,0.283-0.272,0.822-0.272,1.529
		c0,0.7-0.033,1.383,0.272,1.689c0.193,0.193,0.435,0.305,0.725,0.305s0.54-0.104,0.716-0.305c0.234-0.266,0.281-0.547,0.281-1.713
		C269.531,47.83,269.475,47.516,269.25,47.266"/>
	<polygon fill="#2D2318" points="272.936,47.01 272.936,51.739 271.816,51.739 271.816,46.012 275.421,46.012 275.421,47.01 	"/>
	<path fill="#2D2318" d="M279.676,48.594c0,0,0.018,0.459,0,0.507c0,0.651,0.009,1.48-0.562,2.06
		c-0.217,0.225-0.482,0.395-0.781,0.5c-0.232,0.088-0.498,0.128-0.779,0.128c-0.677,0-1.087-0.202-1.578-0.659l0.701-0.717
		c0.184,0.186,0.627,0.377,0.885,0.377c0.298,0,0.539-0.104,0.715-0.296c0.234-0.259,0.268-0.651,0.283-1.144h-1.666v-0.973h1.658
		c-0.018-0.539-0.082-0.724-0.162-0.909c-0.128-0.313-0.459-0.507-0.828-0.507c-0.354,0-0.57,0.105-0.869,0.395l-0.699-0.749
		c0.475-0.442,0.908-0.643,1.568-0.643C279.202,45.964,279.676,47.178,279.676,48.594"/>
</g>
</svg>
