<?xml version="1.0" encoding="utf-8"?>
<!-- Generator: Adobe Illustrator 16.0.0, SVG Export Plug-In . SVG Version: 6.00 Build 0)  -->
<!DOCTYPE svg PUBLIC "-//W3C//DTD SVG 1.1//EN" "http://www.w3.org/Graphics/SVG/1.1/DTD/svg11.dtd">
<svg version="1.1" id="Layer_1" xmlns="http://www.w3.org/2000/svg" xmlns:xlink="http://www.w3.org/1999/xlink" x="0px" y="0px"
	 width="310px" height="55px" viewBox="0 0 456.951 89.131" enable-background="new 0 0 456.951 89.131"
	 xml:space="preserve">
<g>
	<path fill="#4B3E28" d="M35.529,67.439v19.328c5.583,1.482,12.548,2.363,20.105,2.363c18.358,0,33.242-5.19,33.242-11.589V60.581
		c0.004-1.281,0.01-2.566,0.016-3.848L55.306,73.032L35.529,67.439z"/>
	<path fill="#31271A" d="M88.231,56.131L55.306,68.117L29.824,58.84l-7.429-2.704c0,1.977-0.001,3.498-0.002,3.576v17.83
		c0,3.766,5.155,7.111,13.136,9.226V67.439l19.777,5.592l33.586-16.299c0.001-0.281,0.002-0.562,0.004-0.844L88.231,56.131z"/>
	<polygon fill="#4B3E28" points="55.306,64.808 0,44.675 0,47.982 22.394,56.136 55.306,68.117 88.896,55.889 110.612,47.982
		110.612,44.675 	"/>
	<path fill="#68573C" d="M93.869,38.279l-0.015-0.003c-1.329-0.455-11.231-4.109-11.231-4.109s-1.259,0.805-3.882,2.109
		l-1.807-4.163l-21.628-7.872L0,44.373v0.301l22.394,8.153l32.912,11.98L88.91,52.575l21.703-7.901v-0.301L93.869,38.279z"/>
	<path fill="#4B3E28" d="M55.306,44.607c0,0-0.615,1.228-1.83-2.42c-3.186-9.563-6.271-26.434-21.044-38.23l3.031-3.214
		C35.463,0.744,51.622,11.435,55.306,44.607"/>
	<path fill="#6CB41F" d="M89.49,0C77.984,17.828,61.526,19.557,55.336,45.224c-0.322-0.012-0.501-0.022-0.501-0.022
		s17.81,1.138,26.586-7.872c0.498-0.511,0.967-1.056,1.401-1.635C90.922,24.917,89.49,0,89.49,0"/>
	<path fill="#8CCA24" d="M60.665,11.34c-1.771,1.322-3.312,2.766-4.49,4.333c-8.098,10.779-1.34,29.529-1.34,29.529
		s0.179,0.011,0.501,0.022C61.527,19.557,77.984,17.828,89.49,0C88.825,0.138,71.074,3.574,60.665,11.34"/>
	<path fill="#2D2318" d="M151.552,28.669c0.296,0.739,0.493,1.526,0.493,2.364c0,0.936-0.149,1.871-0.493,2.709h-14.037v9.849
		h11.575c0.295,0.788,0.492,1.626,0.492,2.463c0,0.886-0.147,1.773-0.492,2.61h-11.575v10.392h14.53
		c0.295,0.788,0.492,1.626,0.492,2.462c0,0.887-0.148,1.773-0.492,2.611h-20.833v-35.46H151.552z"/>
	<path fill="#2D2318" d="M177.581,28.669c0,0,0.493,0.936,0.493,2.659c0,1.527-0.493,2.758-0.493,2.758h-13.395v29.6
		c0,0-1.084,0.443-3.202,0.443c-2.068,0-3.103-0.443-3.103-0.443V28.669H177.581z"/>
	<path fill="#2D2318" d="M190.652,28.176c9.998,0,15.415,6.354,15.415,18.223c0,11.868-5.417,18.222-15.415,18.222
		c-5.959,0-9.505-1.724-9.505-1.724c0-1.822,0.689-3.742,1.872-4.727c0,0,3.151,1.035,6.944,1.035c5.023,0,8.865-2.168,9.407-10.54
		h-12.017c0,0-0.493-1.035-0.493-2.611c0-1.576,0.493-2.463,0.493-2.463h11.967c-0.689-7.829-4.432-10.095-9.357-10.095
		c-3.399,0-6.452,1.033-6.452,1.033c-1.33-1.182-1.871-3.053-1.871-4.629C181.64,29.9,184.938,28.176,190.652,28.176"/>
	<path fill="#2D2318" d="M212.074,52.111c0,0-0.346-0.886-0.346-2.265s0.346-2.265,0.346-2.265h10.835c0,0,0.346,0.886,0.346,2.265
		s-0.346,2.265-0.346,2.265H212.074z"/>
	<path fill="#2D2318" d="M236.304,63.686c0,0-1.033,0.443-3.103,0.443c-2.315,0-3.202-0.443-3.202-0.443V28.669h13.199
		c6.648,0,10.982,4.481,10.982,11.081c0,6.599-4.334,11.081-10.982,11.081h-6.895V63.686z M242.312,45.611
		c3.446,0,5.269-2.167,5.269-5.861c0-3.694-1.822-5.861-5.269-5.861h-6.009v11.722H242.312z"/>
	<path fill="#2D2318" d="M262.264,53.097c0.442,5.024,2.658,6.304,6.106,6.304c3.299,0,5.761-1.182,5.761-1.182
		c1.035,0.986,1.627,2.708,1.726,4.383c0,0-2.907,2.019-8.374,2.019c-8.026,0-11.573-4.679-11.573-13.593
		c0-9.308,4.433-13.297,11.229-13.297c6.106,0,10.096,3.152,10.096,10.195c0,3.151-0.541,5.171-0.541,5.171H262.264z
		 M267.139,42.558c-2.513,0-4.384,1.674-4.826,6.254h8.668c0.05-0.541,0.098-1.084,0.098-1.626
		C271.078,44.626,270.241,42.558,267.139,42.558"/>
	<path fill="#2D2318" d="M288.498,63.735c0,0-1.279,0.394-3.15,0.394s-3.053-0.394-3.053-0.394V38.223h20.586v25.512
		c0,0-1.231,0.394-3.153,0.394c-1.723,0-3.052-0.394-3.052-0.394V43.346h-8.178V63.735z"/>
	<path fill="#2D2318" d="M314.54,53.097c0.442,5.024,2.659,6.304,6.105,6.304c3.299,0,5.764-1.182,5.764-1.182
		c1.033,0.986,1.627,2.708,1.723,4.383c0,0-2.906,2.019-8.373,2.019c-8.027,0-11.573-4.679-11.573-13.593
		c0-9.308,4.434-13.297,11.229-13.297c6.106,0,10.096,3.152,10.096,10.195c0,3.151-0.542,5.171-0.542,5.171H314.54z M319.415,42.558
		c-2.513,0-4.384,1.674-4.826,6.254h8.667c0.05-0.541,0.1-1.084,0.1-1.626C323.355,44.626,322.518,42.558,319.415,42.558"/>
	<path fill="#2D2318" d="M353.11,38.223c0,0,0.493,1.034,0.493,2.611c0,1.527-0.493,2.56-0.493,2.56h-7.043v20.341
		c0,0-1.083,0.394-3.101,0.394c-2.168,0-3.102-0.394-3.102-0.394V43.395h-7.044c0,0-0.542-1.033-0.542-2.56
		c0-1.577,0.542-2.611,0.542-2.611H353.11z"/>
	<path fill="#2D2318" d="M376.958,38.223c1.821,0,3.102,0.394,3.102,0.394v25.118c0,0-1.182,0.394-3.003,0.394
		c-1.921,0-3.202-0.394-3.202-0.394v-6.256c0-6.451,0.147-10.636,0.296-10.785h-0.148c0.346,0.099-2.51,5.074-4.777,8.914
		l-4.875,8.127c0,0-1.184,0.394-3.151,0.394c-1.873,0-3.056-0.394-3.056-0.394V38.617c0,0,1.183-0.394,3.007-0.394
		c2.017,0,3.2,0.394,3.2,0.394v6.305c0,4.875-0.147,10.735-0.296,10.785h0.148c0,0,1.035-2.61,2.364-4.876l7.288-12.214
		C373.854,38.617,375.036,38.223,376.958,38.223"/>
	<path fill="#2D2318" d="M404.88,38.223c0,0,0.493,1.034,0.493,2.611c0,1.527-0.493,2.56-0.493,2.56h-7.042v20.341
		c0,0-1.084,0.394-3.103,0.394c-2.167,0-3.102-0.394-3.102-0.394V43.395h-7.044c0,0-0.543-1.033-0.543-2.56
		c0-1.577,0.543-2.611,0.543-2.611H404.88z"/>
	<path fill="#2D2318" d="M419.31,37.731c6.992,0,11.327,3.693,11.327,13.444c0,9.752-4.384,13.446-11.327,13.446
		c-6.945,0-11.329-3.694-11.329-13.446C407.98,41.424,412.364,37.731,419.31,37.731 M419.31,42.459
		c-3.004,0-4.975,1.723-4.975,8.716c0,6.994,1.971,8.717,4.975,8.717c3.002,0,4.923-1.723,4.923-8.717
		C424.232,44.183,422.312,42.459,419.31,42.459"/>
	<path fill="#2D2318" d="M447.839,37.732c5.516,0,9.112,3.398,9.112,13.444c0,10.047-3.597,13.445-9.112,13.445
		c-3.151,0-5.271-0.886-6.648-2.561v10.192c0,0-1.082,0.394-3.151,0.394s-3.055-0.394-3.055-0.394V38.618
		c0,0,0.985-0.394,3.055-0.394s3.151,0.394,3.151,0.394v1.674C442.568,38.618,444.688,37.732,447.839,37.732 M445.622,42.755
		c-2.756,0-4.432,2.215-4.432,5.319v6.205c0,3.104,1.676,5.32,4.432,5.32c3.104,0,4.926-1.478,4.926-8.423
		C450.548,44.232,448.726,42.755,445.622,42.755"/>
	<polygon fill="#2D2318" points="135.321,83.847 135.321,78.555 133.145,78.555 133.145,83.847 131.437,83.847 131.437,77.056
		137.03,77.056 137.03,83.847 	"/>
	<path fill="#2D2318" d="M143.613,83.09c-0.521,0.549-1.251,0.835-2.112,0.835c-0.86,0-1.577-0.286-2.099-0.835
		c-0.574-0.599-0.769-1.29-0.769-2.646c0-1.343,0.209-2.033,0.769-2.633c0.522-0.549,1.239-0.835,2.099-0.835
		c0.861,0,1.591,0.286,2.112,0.835c0.561,0.586,0.769,1.29,0.769,2.606C144.382,81.801,144.187,82.492,143.613,83.09
		 M141.501,78.501c-1.16,0-1.173,1.173-1.173,2.047c0,1.303,0.352,1.851,1.173,1.851c1.135,0,1.187-1.069,1.187-1.955
		C142.688,79.571,142.623,78.501,141.501,78.501"/>
	<path fill="#2D2318" d="M150.693,85.514v-1.668h-3.951v1.668h-1.603v-3.166h0.73c0.443-1.213,0.691-2.23,0.691-4.654v-0.639h4.876
		v5.293h0.86v3.166H150.693z M149.741,78.554h-1.512c0,0.208,0,0.783-0.014,0.953c-0.052,1.263-0.299,2.045-0.586,2.841h2.112
		V78.554z"/>
	<polygon fill="#2D2318" points="155.281,78.554 155.281,83.846 153.586,83.846 153.586,77.055 158.084,77.055 158.084,78.554 	"/>
	<path fill="#2D2318" d="M163.665,83.09c-0.521,0.549-1.252,0.835-2.112,0.835c-0.861,0-1.578-0.286-2.099-0.835
		c-0.573-0.599-0.769-1.29-0.769-2.646c0-1.343,0.209-2.033,0.769-2.633c0.521-0.549,1.238-0.835,2.099-0.835
		c0.86,0,1.591,0.286,2.112,0.835c0.561,0.586,0.77,1.29,0.77,2.606C164.435,81.801,164.239,82.492,163.665,83.09 M161.553,78.501
		c-1.161,0-1.174,1.173-1.174,2.047c0,1.303,0.353,1.851,1.174,1.851c1.135,0,1.187-1.069,1.187-1.955
		C162.74,79.571,162.674,78.501,161.553,78.501"/>
	<polygon fill="#2D2318" points="168.79,78.554 168.79,83.846 167.082,83.846 167.082,78.554 165.086,78.554 165.086,77.055
		170.746,77.055 170.746,78.554 	"/>
	<path fill="#2D2318" d="M176.377,83.09c-0.521,0.549-1.251,0.835-2.112,0.835c-0.86,0-1.577-0.286-2.099-0.835
		c-0.573-0.599-0.769-1.29-0.769-2.646c0-1.343,0.209-2.033,0.769-2.633c0.522-0.549,1.239-0.835,2.099-0.835
		c0.861,0,1.591,0.286,2.112,0.835c0.561,0.586,0.769,1.29,0.769,2.606C177.146,81.801,176.951,82.492,176.377,83.09
		 M174.265,78.501c-1.16,0-1.173,1.173-1.173,2.047c0,1.303,0.352,1.851,1.173,1.851c1.135,0,1.186-1.069,1.186-1.955
		C175.451,79.571,175.387,78.501,174.265,78.501"/>
	<path fill="#2D2318" d="M182.219,83.847h-3.468v-6.791h3.35c1.278,0,2.099,0.729,2.099,1.863c0,0.638-0.273,1.094-0.86,1.435
		c0.652,0.338,0.965,0.807,0.965,1.538C184.305,83.091,183.497,83.847,182.219,83.847 M180.433,78.307v1.446h1.264
		c0.535,0,0.822-0.259,0.822-0.729c0-0.457-0.287-0.717-0.822-0.717H180.433z M181.775,81.018h-1.343v1.578h1.343
		c0.535,0,0.847-0.312,0.847-0.795C182.623,81.304,182.311,81.018,181.775,81.018"/>
	<polygon fill="#2D2318" points="190.041,83.847 188.333,81.083 187.629,81.892 187.629,83.847 185.934,83.847 185.934,77.056
		187.629,77.056 187.629,79.91 189.924,77.056 191.984,77.056 189.493,79.856 192.101,83.847 	"/>
	<path fill="#2D2318" d="M196.69,83.847v-0.585c-0.299,0.286-0.442,0.39-0.704,0.494c-0.261,0.105-0.573,0.156-0.965,0.156
		c-1.447,0-2.294-0.783-2.294-2.111c0-1.227,0.886-1.982,2.321-1.982h1.603v-0.339c0-0.756-0.378-1.068-1.29-1.068
		c-0.6,0-0.874,0.117-1.278,0.56L193,77.916c0.391-0.392,0.574-0.535,0.913-0.691c0.391-0.169,0.86-0.248,1.5-0.248
		c1.955,0,2.933,0.808,2.933,2.398v4.472H196.69z M195.308,80.979c-0.6,0-0.951,0.273-0.951,0.769c0,0.52,0.351,0.781,1.068,0.781
		c0.874,0,1.226-0.338,1.226-1.187v-0.363H195.308z"/>
	<polygon fill="#2D2318" points="203.182,83.847 203.182,77.056 204.891,77.056 204.891,82.349 206.754,82.349 206.754,77.056
		208.45,77.056 208.45,82.349 210.314,82.349 210.314,77.056 212.008,77.056 212.008,83.847 	"/>
	<polygon fill="#2D2318" points="218.021,83.847 216.312,81.083 215.607,81.892 215.607,83.847 213.913,83.847 213.913,77.056
		215.607,77.056 215.607,79.91 217.902,77.056 219.963,77.056 217.472,79.856 220.08,83.847 	"/>
	<path fill="#2D2318" d="M225.646,83.09c-0.521,0.549-1.252,0.835-2.111,0.835c-0.86,0-1.578-0.286-2.1-0.835
		c-0.572-0.599-0.769-1.29-0.769-2.646c0-1.343,0.209-2.033,0.769-2.633c0.521-0.549,1.239-0.835,2.1-0.835
		c0.859,0,1.591,0.286,2.111,0.835c0.562,0.586,0.77,1.29,0.77,2.606C226.416,81.801,226.221,82.492,225.646,83.09 M223.535,78.501
		c-1.16,0-1.173,1.173-1.173,2.047c0,1.303,0.352,1.851,1.173,1.851c1.135,0,1.187-1.069,1.187-1.955
		C224.722,79.571,224.657,78.501,223.535,78.501"/>
	<path fill="#2D2318" d="M231.801,83.847v-5.292h-1.591l-0.078,2.646c-0.052,1.799-0.847,2.646-2.138,2.646h-0.9v-1.498h0.248
		c0.522,0,1.082-0.3,1.108-1.461l0.104-3.832h4.94v6.791H231.801z"/>
	<path fill="#2D2318" d="M238.659,83.846h-3.273v-6.791h1.709v2.452h1.564c1.342,0,2.255,0.886,2.255,2.163
		C240.914,82.947,239.989,83.846,238.659,83.846 M237.042,80.835v1.682h1.304c0.549,0,0.887-0.325,0.887-0.847
		c0-0.509-0.338-0.835-0.887-0.835H237.042z"/>
	<polygon fill="#2D2318" points="246.168,83.847 246.168,81.123 243.991,81.123 243.991,83.847 242.282,83.847 242.282,77.056
		243.991,77.056 243.991,79.624 246.168,79.624 246.168,77.056 247.876,77.056 247.876,83.847 	"/>
	<polygon fill="#2D2318" points="253.848,83.847 253.848,79.702 251.462,83.847 249.754,83.847 249.754,77.056 251.462,77.056
		251.462,81.096 253.848,77.056 255.556,77.056 255.556,83.847 	"/>
	<polygon fill="#2D2318" points="261.553,83.847 259.845,81.083 259.141,81.892 259.141,83.847 257.446,83.847 257.446,77.056
		259.141,77.056 259.141,79.91 261.435,77.056 263.496,77.056 261.005,79.856 263.613,83.847 	"/>
	<path fill="#2D2318" d="M269.181,83.09c-0.521,0.549-1.252,0.835-2.112,0.835c-0.859,0-1.578-0.286-2.099-0.835
		c-0.574-0.599-0.77-1.29-0.77-2.646c0-1.343,0.208-2.033,0.77-2.633c0.521-0.549,1.239-0.835,2.099-0.835
		c0.86,0,1.591,0.286,2.112,0.835c0.56,0.586,0.769,1.29,0.769,2.606C269.949,81.801,269.754,82.492,269.181,83.09 M267.068,78.501
		c-1.161,0-1.174,1.173-1.174,2.047c0,1.303,0.354,1.851,1.174,1.851c1.135,0,1.187-1.069,1.187-1.955
		C268.255,79.571,268.189,78.501,267.068,78.501"/>
	<path fill="#2D2318" d="M275.021,83.847h-3.468v-6.791h3.352c1.277,0,2.098,0.729,2.098,1.863c0,0.638-0.272,1.094-0.859,1.435
		c0.65,0.338,0.965,0.807,0.965,1.538C277.107,83.091,276.299,83.847,275.021,83.847 M273.234,78.307v1.446h1.265
		c0.535,0,0.821-0.259,0.821-0.729c0-0.457-0.286-0.717-0.821-0.717H273.234z M274.577,81.018h-1.343v1.578h1.343
		c0.535,0,0.849-0.312,0.849-0.795C275.426,81.304,275.112,81.018,274.577,81.018"/>
	<path fill="#2D2318" d="M286.859,79.701c0.312,0.417,0.47,0.9,0.47,1.473c0,1.644-1.2,2.751-2.973,2.751
		c-1.774,0-2.973-1.107-2.973-2.751c0-0.587,0.156-1.069,0.482-1.486c0.182-0.235,0.312-0.365,0.677-0.626
		c-0.442-0.325-0.586-0.495-0.781-0.874c-0.17-0.326-0.261-0.676-0.261-1.068c0-1.526,1.199-2.633,2.855-2.633
		c1.642,0,2.842,1.107,2.842,2.621c0,0.404-0.091,0.754-0.261,1.08c-0.195,0.366-0.338,0.549-0.782,0.874
		C286.533,79.337,286.676,79.453,286.859,79.701 M284.356,79.831c-0.718,0-1.278,0.574-1.278,1.292c0,0.717,0.561,1.277,1.278,1.277
		c0.704,0,1.277-0.56,1.277-1.251C285.634,80.405,285.073,79.831,284.356,79.831 M284.356,76.012c-0.665,0-1.161,0.507-1.161,1.173
		c0,0.677,0.496,1.174,1.161,1.174c0.651,0,1.147-0.497,1.147-1.148C285.504,76.519,285.022,76.012,284.356,76.012"/>
	<rect x="289.223" y="79.336" fill="#2D2318" width="4.016" height="1.577"/>
	<polygon fill="#2D2318" points="296.677,83.847 296.677,76.389 294.785,78.032 294.785,76.207 296.677,74.564 298.372,74.564
		298.372,83.847 	"/>
	<polygon fill="#2D2318" points="303.756,83.847 303.756,76.389 301.866,78.032 301.866,76.207 303.756,74.564 305.451,74.564
		305.451,83.847 	"/>
	<polygon fill="#2D2318" points="315.686,83.847 313.979,81.083 313.273,81.892 313.273,83.847 311.578,83.847 311.578,77.056
		313.273,77.056 313.273,79.91 315.567,77.056 317.629,77.056 315.138,79.856 317.746,83.847 	"/>
	<path fill="#2D2318" d="M322.778,83.847v-5.292h-1.591l-0.078,2.646c-0.051,1.799-0.846,2.646-2.138,2.646h-0.9v-1.498h0.248
		c0.521,0,1.083-0.3,1.108-1.461l0.104-3.832h4.941v6.791H322.778z"/>
	<path fill="#2D2318" d="M329.857,83.847v-0.585c-0.3,0.286-0.442,0.39-0.703,0.494c-0.261,0.105-0.573,0.156-0.966,0.156
		c-1.446,0-2.294-0.783-2.294-2.111c0-1.227,0.887-1.982,2.32-1.982h1.604v-0.339c0-0.756-0.377-1.068-1.289-1.068
		c-0.602,0-0.874,0.117-1.28,0.56l-1.081-1.056c0.391-0.392,0.574-0.535,0.913-0.691c0.391-0.169,0.86-0.248,1.5-0.248
		c1.954,0,2.933,0.808,2.933,2.398v4.472H329.857z M328.476,80.979c-0.601,0-0.951,0.273-0.951,0.769
		c0,0.52,0.351,0.781,1.068,0.781c0.874,0,1.226-0.338,1.226-1.187v-0.363H328.476z"/>
	<path fill="#2D2318" d="M337.315,83.678c-0.378,0.168-0.795,0.247-1.266,0.247c-1.941,0-3.05-1.278-3.05-3.532
		c0-2.139,1.134-3.417,3.05-3.417c0.471,0,0.899,0.079,1.266,0.235c0.364,0.156,0.56,0.287,0.966,0.677l-1.148,1.149
		c-0.391-0.406-0.666-0.536-1.096-0.536c-0.886,0-1.342,0.666-1.342,1.943c0,1.304,0.456,1.955,1.342,1.955
		c0.444,0,0.692-0.13,1.096-0.534l1.148,1.134C337.875,83.392,337.68,83.521,337.315,83.678"/>
	<path fill="#2D2318" d="M343.338,83.678c-0.378,0.168-0.795,0.247-1.264,0.247c-1.943,0-3.05-1.278-3.05-3.532
		c0-2.139,1.133-3.417,3.05-3.417c0.469,0,0.9,0.079,1.264,0.235c0.366,0.156,0.562,0.287,0.966,0.677l-1.147,1.149
		c-0.391-0.406-0.665-0.536-1.096-0.536c-0.887,0-1.343,0.666-1.343,1.943c0,1.304,0.456,1.955,1.343,1.955
		c0.443,0,0.692-0.13,1.096-0.534l1.147,1.134C343.9,83.392,343.704,83.521,343.338,83.678"/>
	<path fill="#2D2318" d="M350.079,83.09c-0.521,0.549-1.251,0.835-2.111,0.835s-1.578-0.286-2.099-0.835
		c-0.574-0.599-0.771-1.29-0.771-2.646c0-1.343,0.209-2.033,0.771-2.633c0.521-0.549,1.238-0.835,2.099-0.835
		s1.59,0.286,2.111,0.835c0.561,0.586,0.77,1.29,0.77,2.606C350.849,81.801,350.652,82.492,350.079,83.09 M347.968,78.501
		c-1.161,0-1.174,1.173-1.174,2.047c0,1.303,0.353,1.851,1.174,1.851c1.135,0,1.185-1.069,1.185-1.955
		C349.152,79.571,349.089,78.501,347.968,78.501"/>
	<path fill="#2D2318" d="M355.92,83.847h-3.468v-6.791h3.353c1.276,0,2.098,0.729,2.098,1.863c0,0.638-0.274,1.094-0.86,1.435
		c0.65,0.338,0.964,0.807,0.964,1.538C358.006,83.091,357.198,83.847,355.92,83.847 M354.134,78.307v1.446h1.267
		c0.533,0,0.82-0.259,0.82-0.729c0-0.457-0.287-0.717-0.82-0.717H354.134z M355.478,81.018h-1.344v1.578h1.344
		c0.536,0,0.848-0.312,0.848-0.795C356.325,81.304,356.014,81.018,355.478,81.018"/>
	<polygon fill="#2D2318" points="366.768,83.847 365.06,81.083 364.354,81.892 364.354,83.847 362.661,83.847 362.661,77.056
		364.354,77.056 364.354,79.91 366.65,77.056 368.711,77.056 366.219,79.856 368.828,83.847 	"/>
	<polygon fill="#2D2318" points="373.091,83.847 373.091,74.564 379.206,74.564 379.206,76.182 374.902,76.182 374.902,78.358
		378.567,78.358 378.567,79.976 374.902,79.976 374.902,82.229 379.206,82.229 379.206,83.847 	"/>
	<polygon fill="#2D2318" points="382.83,76.182 382.83,83.847 381.019,83.847 381.019,74.565 386.858,74.565 386.858,76.182 	"/>
	<path fill="#2D2318" d="M393.756,78.749c0,0,0.026,0.745,0,0.822c0,1.056,0.013,2.399-0.913,3.338
		c-0.352,0.363-0.783,0.639-1.265,0.809c-0.379,0.143-0.808,0.208-1.264,0.208c-1.096,0-1.761-0.327-2.556-1.069l1.135-1.16
		c0.3,0.299,1.017,0.611,1.434,0.611c0.482,0,0.872-0.169,1.159-0.481c0.379-0.418,0.43-1.056,0.457-1.852h-2.698v-1.577h2.685
		c-0.026-0.874-0.13-1.173-0.26-1.473c-0.209-0.509-0.743-0.822-1.343-0.822c-0.573,0-0.927,0.17-1.408,0.64l-1.135-1.214
		c0.77-0.717,1.474-1.042,2.543-1.042C392.986,74.487,393.756,76.455,393.756,78.749"/>
	<polygon fill="#2D2318" points="402.595,83.847 402.595,79.702 400.209,83.847 398.502,83.847 398.502,77.056 400.209,77.056
		400.209,81.096 402.595,77.056 404.303,77.056 404.303,83.847 	"/>
	<path fill="#2D2318" d="M414.969,82.909c-0.652,0.677-1.5,1.016-2.504,1.016s-1.864-0.351-2.517-1.016
		c-0.978-1.003-0.912-2.542-0.912-3.572v-0.509c0-1.851,0.195-2.594,0.912-3.324c0.652-0.665,1.513-1.017,2.517-1.017
		c0.99,0,1.852,0.352,2.504,1.017c0.65,0.665,0.925,1.552,0.925,3.05v0.653C415.894,80.536,415.958,81.879,414.969,82.909
		 M413.624,76.598c-0.285-0.325-0.69-0.495-1.159-0.495c-0.471,0-0.887,0.17-1.174,0.495c-0.417,0.458-0.443,1.331-0.443,2.477
		c0,1.135-0.052,2.242,0.443,2.738c0.313,0.313,0.703,0.495,1.174,0.495c0.469,0,0.874-0.169,1.159-0.495
		c0.381-0.43,0.457-0.886,0.457-2.776C414.081,77.512,413.99,77.002,413.624,76.598"/>
	<polygon fill="#2D2318" points="419.597,76.182 419.597,83.847 417.785,83.847 417.785,74.565 423.625,74.565 423.625,76.182 	"/>
	<path fill="#2D2318" d="M430.521,78.749c0,0,0.027,0.745,0,0.822c0,1.056,0.014,2.399-0.913,3.338
		c-0.351,0.363-0.781,0.639-1.264,0.809c-0.378,0.143-0.808,0.208-1.264,0.208c-1.097,0-1.761-0.327-2.557-1.069l1.136-1.16
		c0.298,0.299,1.017,0.611,1.434,0.611c0.482,0,0.873-0.169,1.159-0.481c0.379-0.418,0.433-1.056,0.457-1.852h-2.699v-1.577h2.687
		c-0.027-0.874-0.132-1.173-0.262-1.473c-0.208-0.509-0.743-0.822-1.342-0.822c-0.573,0-0.925,0.17-1.409,0.64l-1.132-1.214
		c0.768-0.717,1.471-1.042,2.541-1.042C429.753,74.487,430.521,76.455,430.521,78.749"/>
</g>
</svg>
